<svg xmlns="http://www.w3.org/2000/svg" width="60" height="60" viewBox="0 0 60 60"><defs><style>.a,.b{fill:#247d8f;}.a{opacity:0.2;}</style></defs><g transform="translate(-241 -758)"><circle class="a" cx="30" cy="30" r="30" transform="translate(241 758)"/><g transform="translate(229.945 772.926)"><g transform="translate(27.055 0.001)"><path class="b" d="M45.4,16.85l2.811.558a2.866,2.866,0,1,0,.291-1.448l-2.909-.577a4.6,4.6,0,0,0-1.2-2.969l5.38-7.466a3.584,3.584,0,1,0-1.205-.855l-5.333,7.4a4.6,4.6,0,0,0-5.626.881L32.529,8.43a2.872,2.872,0,1,0-.949,1.134l5.2,4.04a4.606,4.606,0,0,0,1.094,5.329L34.76,23.339a3.813,3.813,0,1,0,1.13.96l3.224-4.56a4.6,4.6,0,0,0,3.544.078l5.781,7.325a3.235,3.235,0,1,0,1.2-.858l-5.71-7.22A4.628,4.628,0,0,0,45.4,16.85Zm-7.558-1.331C37.841,13.785,37.843,17.251,37.841,15.519Z" transform="translate(-27.055 -0.001)"/></g></g></g></svg>