<svg xmlns="http://www.w3.org/2000/svg" width="60" height="60" viewBox="0 0 60 60"><defs><style>.a,.b{fill:#247d8f;}.a{opacity:0.2;}</style></defs><g transform="translate(-1066 -758)"><circle class="a" cx="30" cy="30" r="30" transform="translate(1066 758)"/><g transform="translate(1081 639.668)"><g transform="translate(0 141.333)"><path class="b" d="M23.25,141.333a6.669,6.669,0,0,0-4.719,1.919L15,146.377l-.006-.006L13.1,148.039l.012.012-3.369,2.988a4.229,4.229,0,1,1-2.994-7.206A4.271,4.271,0,0,1,9.8,145.12l1.419,1.256,1.887-1.669-1.581-1.4a6.715,6.715,0,1,0-.056,9.55L15,149.727l.006.006,1.887-1.675-.006-.006,3.369-2.981a4.227,4.227,0,1,1,2.994,7.2,4.29,4.29,0,0,1-3.05-1.281l-1.419-1.256-1.888,1.675,1.581,1.4a6.737,6.737,0,1,0,4.775-11.475Z" transform="translate(0 -141.333)"/></g></g></g></svg>