<svg xmlns="http://www.w3.org/2000/svg" width="448.317" height="380" viewBox="0 0 448.317 380"><defs><style>.a,.h,.k,.m{fill:#247d8f;}.b,.c,.e,.i,.n{fill:#fff;}.b{opacity:0.7;}.c,.d,.f,.h,.i,.j,.k{stroke:#263238;}.c,.d,.f,.h,.j,.k,.l{stroke-linecap:round;stroke-linejoin:round;}.d,.g{fill:#263238;}.e{opacity:0.24;}.f,.j,.l{fill:none;}.f,.k{stroke-width:0.5px;}.i{stroke-miterlimit:10;}.l{stroke:#fff;}.m{mix-blend-mode:multiply;isolation:isolate;}</style></defs><g transform="translate(-172 -132)"><g transform="translate(146.9 71.252)"><path class="a" d="M422.41,180.037c2.266-23.453,7.7-45.665-1.9-68.232-17.625-41.439-70.767-63.413-112.07-43.8C287.324,78.039,269.26,92.632,246,98,183.221,112.487,86.324,35.286,52.145,125.173c-11.723,30.834-7.023,71.475,14.214,97.253,6.814,8.27,15.128,15.477,20.167,24.934,13.791,25.885-5.726,54.34-14.571,78.492-20.9,57.068,57.907,88.647,100.674,94.467C243.369,429.947,301.687,349,372,382c49,23,92-33,83-89-5.893-36.664-35.706-71.75-32.921-109.107Q422.223,181.951,422.41,180.037Z"/><path class="b" d="M422.41,180.037c2.266-23.453,7.7-45.665-1.9-68.232-17.625-41.439-70.767-63.413-112.07-43.8C287.324,78.039,269.26,92.632,246,98,183.221,112.487,86.324,35.286,52.145,125.173c-11.723,30.834-7.023,71.475,14.214,97.253,6.814,8.27,15.128,15.477,20.167,24.934,13.791,25.885-5.726,54.34-14.571,78.492-20.9,57.068,57.907,88.647,100.674,94.467C243.369,429.947,301.687,349,372,382c49,23,92-33,83-89-5.893-36.664-35.706-71.75-32.921-109.107Q422.223,181.951,422.41,180.037Z"/><circle class="c" cx="34.529" cy="34.529" r="34.529" transform="translate(51.243 126.199)"/><circle class="c" cx="34.529" cy="34.529" r="34.529" transform="translate(48.67 122.768)"/><circle class="d" cx="31.097" cy="31.097" r="31.097" transform="translate(52.101 126.199)"/><path class="a" d="M79.553,133.92s-3.432-8.579-9.437-14.584-30.454-9.865-30.454-9.865A89.464,89.464,0,0,1,50.386,121.91c5.576,7.72,24.019,25.306,24.019,25.306s-9.007-7.72-17.157-8.578-28.738,3.431-30.024,3.431,7.72,3.432,14.154,6.434,31.312,5.576,31.312,5.576-10.723,3-18.015,5.576S40.52,181.1,40.52,181.1s9.437-8.579,17.586-10.724,19.731-6.005,19.731-6.005-7.292,8.15-9.008,13.726-.429,18.444-.429,18.444,3.861-12.01,8.579-16.728,9.865-12.868,9.865-12.868a118.78,118.78,0,0,1,6.434,12.01c3.432,7.292,5.576,18.015,5.576,18.015s5.576-12.01,5.147-18.015-6.862-16.728-6.862-16.728,4.289-3,10.723-.429,17.586,13.3,17.586,13.3-2.574-14.155-6.863-19.731-22.733-7.292-22.733-7.292,10.294-6.005,16.728-7.291,15.012,1.715,15.012,1.715-9.865-13.725-17.586-14.583-19.3,11.152-19.3,11.152,2.573-12.868,3.431-17.157-.858-15.013-.858-15.013-4.718,2.574-10.294,10.724A21.333,21.333,0,0,0,79.553,133.92Z"/><path class="e" d="M79.553,133.92s-3.432-8.579-9.437-14.584-30.454-9.865-30.454-9.865A89.464,89.464,0,0,1,50.386,121.91c5.576,7.72,24.019,25.306,24.019,25.306s-9.007-7.72-17.157-8.578-28.738,3.431-30.024,3.431,7.72,3.432,14.154,6.434,31.312,5.576,31.312,5.576-10.723,3-18.015,5.576S40.52,181.1,40.52,181.1s9.437-8.579,17.586-10.724,19.731-6.005,19.731-6.005-7.292,8.15-9.008,13.726-.429,18.444-.429,18.444,3.861-12.01,8.579-16.728,9.865-12.868,9.865-12.868a118.78,118.78,0,0,1,6.434,12.01c3.432,7.292,5.576,18.015,5.576,18.015s5.576-12.01,5.147-18.015-6.862-16.728-6.862-16.728,4.289-3,10.723-.429,17.586,13.3,17.586,13.3-2.574-14.155-6.863-19.731-22.733-7.292-22.733-7.292,10.294-6.005,16.728-7.291,15.012,1.715,15.012,1.715-9.865-13.725-17.586-14.583-19.3,11.152-19.3,11.152,2.573-12.868,3.431-17.157-.858-15.013-.858-15.013-4.718,2.574-10.294,10.724A21.333,21.333,0,0,0,79.553,133.92Z"/><path class="f" d="M88,120.864c.3-1.233.626-2.46.986-3.673"/><path class="f" d="M59.354,120.861c4.018,2.931,9.039,6.965,11.62,10.485,4.718,6.434,14.155,20.16,14.155,20.16a127.421,127.421,0,0,1,2.177-27.5"/><path class="f" d="M53.388,116.763s1.255.794,3.124,2.083"/><path class="f" d="M85.129,151.506s16.3-16.3,23.162-17.586,12.867,3.86,12.867,3.86"/><path class="f" d="M55.995,165.137c-3.966,2.528-4.323,3.955-4.323,3.955"/><path class="f" d="M120.729,166.518s-2.573-6.434-11.581-9.436-23.162-3.432-23.162-3.432-19.847,6.5-27.1,9.888"/><path class="f" d="M77.324,151.2c4.793,1.394,8.662,2.449,8.662,2.449"/><path class="f" d="M47.107,143.581c4.663.282,10.66.917,14,2.349,2.721,1.166,8.086,2.861,13.139,4.366"/><path class="f" d="M40.52,143.356s1.567,0,3.884.091"/><path class="f" d="M85.129,156.224s-12.01,18.015-12.868,22.3a43.78,43.78,0,0,0-.858,7.721"/><path class="f" d="M90.467,161.891c2.313,2.986,5.087,6.968,6.243,10.2a69.945,69.945,0,0,1,3,12.01"/><path class="f" d="M86.844,157.511s.953,1.058,2.282,2.691"/><path class="a" d="M74.1,137.616s-2.217-8.97-.841-17.35S92.244,94.49,92.244,94.49a89.56,89.56,0,0,0-1.454,16.358c-.026,9.524-4.751,34.566-4.751,34.566s2.814-11.525,8.933-16.975,25.345-13.975,26.39-14.726-4.27,7.291-7.745,13.482-22.181,22.793-22.181,22.793,10.461-3.816,17.885-5.978,24.007,9.164,24.007,9.164-12.669-1.464-20.539,1.547-19.53,6.631-19.53,6.631,10.677,2.367,15.323,5.895,11.106,14.732,11.106,14.732-10.141-7.5-16.725-8.585-15.519-4.7-15.519-4.7A118.872,118.872,0,0,0,89.223,182.2c1.466,7.925,5.978,17.886,5.978,17.886s-11.534-6.5-14.689-11.631-4.182-17.591-4.182-17.591-5.235.063-8.96,5.906-6.529,21.058-6.529,21.058-6.166-13-5.934-20.03S69.119,158.62,69.119,158.62s-11.864,1.127-17.841,3.834S40.085,172.6,40.085,172.6s.007-16.9,5.778-22.1,22.183-2.2,22.183-2.2L55.252,136.366c-3.2-2.983-8.059-12.694-8.059-12.694s5.333-.662,14.616,2.706A21.331,21.331,0,0,1,74.1,137.616Z"/><path class="f" d="M59.624,131.939c-.961-.827-1.943-1.633-2.943-2.407"/><path class="f" d="M82.893,115.227c-1.554,4.725-3.279,10.93-3.323,15.3-.08,7.978.261,24.631.261,24.631a127.4,127.4,0,0,0-17.806-21.065"/><path class="f" d="M85.349,108.418s-.556,1.378-1.323,3.515"/><path class="f" d="M79.831,155.153s-22.746-3.733-29.071-.775-8.2,10.641-8.2,10.641"/><path class="f" d="M111.446,149.232c4.7-.26,5.818.691,5.818.691"/><path class="f" d="M59.669,188.112s-1.662-6.727,3.9-14.42,16.812-16.3,16.812-16.3,19.911-6.3,27.784-7.778"/><path class="f" d="M85.992,150.353c-3.079,3.928-5.607,7.042-5.607,7.042"/><path class="f" d="M106.092,126.539c-3.623,2.949-8.124,6.962-10,10.074-1.531,2.535-4.9,7.041-8.126,11.211"/><path class="f" d="M111.312,122.514s-1.272.914-3.1,2.339"/><path class="f" d="M82.583,158.985s20.263,7.628,23.461,10.612a43.828,43.828,0,0,1,5.2,5.771"/><path class="f" d="M81.552,166.7c-.137,3.774-.068,8.626.881,11.928A69.857,69.857,0,0,0,87,190.138"/><path class="f" d="M81.94,161.031s-.157,1.415-.283,3.517"/><path class="c" d="M10.667,0H237.333A10.667,10.667,0,0,1,248,10.667v147a11.667,11.667,0,0,1-11.667,11.667H11.667A11.667,11.667,0,0,1,0,157.667v-147A10.667,10.667,0,0,1,10.667,0Z" transform="translate(130.166 183.432)"/><rect class="g" width="13.962" height="9.171" transform="translate(209.828 200.099)"/><rect class="g" width="12.962" height="12.86" transform="translate(165.601 256.666)"/><rect class="g" width="13.061" height="12.86" transform="translate(222.759 211.474)"/><rect class="g" width="13.962" height="9.171" transform="translate(193.662 200.099)"/><rect class="g" width="13.061" height="12.86" transform="translate(238.025 211.474)"/><rect class="g" width="13.962" height="9.171" transform="translate(225.995 200.099)"/><rect class="g" width="24.564" height="12.86" transform="translate(146.166 241.602)"/><rect class="g" width="13.061" height="12.86" transform="translate(192.228 211.474)"/><rect class="g" width="17.231" height="12.86" transform="translate(146.166 256.666)"/><rect class="g" width="13.962" height="9.171" transform="translate(242.161 200.099)"/><rect class="g" width="13.061" height="12.86" transform="translate(161.697 211.474)"/><rect class="g" width="13.962" height="9.171" transform="translate(161.329 200.099)"/><rect class="g" width="13.962" height="9.171" transform="translate(177.496 200.099)"/><rect class="g" width="13.061" height="12.86" transform="translate(176.962 211.474)"/><rect class="g" width="13.061" height="12.86" transform="translate(207.494 211.474)"/><rect class="g" width="13.962" height="9.171" transform="translate(306.827 200.099)"/><rect class="g" width="13.962" height="9.171" transform="translate(322.993 200.099)"/><rect class="g" width="13.061" height="12.86" transform="translate(314.353 211.474)"/><rect class="g" width="13.061" height="12.86" transform="translate(329.619 211.474)"/><rect class="g" width="19.231" height="12.86" transform="translate(347.601 256.666)"/><rect class="g" width="13.962" height="9.171" transform="translate(339.159 200.099)"/><rect class="g" width="13.327" height="12.86" transform="translate(146.166 211.474)"/><rect class="g" width="13.962" height="9.171" transform="translate(258.328 200.099)"/><rect class="g" width="13.962" height="9.171" transform="translate(274.494 200.099)"/><rect class="g" width="13.061" height="12.86" transform="translate(268.556 211.474)"/><rect class="g" width="13.061" height="12.86" transform="translate(299.088 211.474)"/><rect class="g" width="13.061" height="12.86" transform="translate(253.291 211.474)"/><rect class="g" width="13.061" height="12.86" transform="translate(283.822 211.474)"/><rect class="g" width="13.962" height="9.171" transform="translate(290.66 200.099)"/><rect class="g" width="12.962" height="12.86" transform="translate(271.768 256.666)"/><rect class="g" width="12.962" height="12.86" transform="translate(339.768 241.602)"/><rect class="g" width="12.962" height="12.86" transform="translate(324.601 241.602)"/><rect class="g" width="12.962" height="12.86" transform="translate(332.435 256.666)"/><rect class="g" width="12.962" height="12.86" transform="translate(317.268 256.666)"/><rect class="g" width="12.962" height="12.86" transform="translate(286.935 256.666)"/><rect class="g" width="12.962" height="12.86" transform="translate(302.101 256.666)"/><rect class="g" width="12.962" height="12.86" transform="translate(309.435 241.602)"/><rect class="g" width="12.962" height="12.86" transform="translate(294.268 241.602)"/><rect class="g" width="11.507" height="9.171" transform="translate(355.326 200.099)"/><rect class="g" width="12.959" height="9.171" transform="translate(146.166 200.099)"/><rect class="g" width="220.667" height="13.368" transform="translate(146.166 271.73)"/><rect class="g" width="21.948" height="12.86" transform="translate(344.884 211.474)"/><rect class="g" width="11.898" height="12.86" transform="translate(354.935 241.602)"/><path class="g" d="M351.268,239.3h-2.2V226.538H336.1V239.3h-2.2V226.538H320.935V239.3h-2.2V226.538H305.768V239.3h-2.2V226.538H290.6V239.3h-2.2V226.538H275.435V239.3h-2.2V226.538H260.268V239.3h-2.2V226.538H245.1V239.3h-2.2V226.538H229.935V239.3h-2.2V226.538H214.768V239.3h-2.2V226.538H199.6V239.3h-2.2V226.538H184.435V239.3h-2.2V226.538H169.268V239.3h-2.2V226.538h-20.9V239.4H366.832v-12.86H351.268Z"/><rect class="g" width="12.962" height="12.86" transform="translate(233.601 241.602)"/><rect class="g" width="12.962" height="12.86" transform="translate(279.101 241.602)"/><rect class="g" width="12.962" height="12.86" transform="translate(203.268 241.602)"/><rect class="g" width="12.962" height="12.86" transform="translate(211.101 256.666)"/><rect class="g" width="12.962" height="12.86" transform="translate(218.435 241.602)"/><rect class="g" width="12.962" height="12.86" transform="translate(188.101 241.602)"/><rect class="g" width="12.962" height="12.86" transform="translate(180.768 256.666)"/><rect class="g" width="12.962" height="12.86" transform="translate(195.935 256.666)"/><rect class="g" width="12.962" height="12.86" transform="translate(248.768 241.602)"/><rect class="g" width="12.962" height="12.86" transform="translate(256.601 256.666)"/><rect class="g" width="12.962" height="12.86" transform="translate(263.935 241.602)"/><rect class="g" width="12.962" height="12.86" transform="translate(226.268 256.666)"/><rect class="g" width="12.962" height="12.86" transform="translate(241.435 256.666)"/><rect class="g" width="12.962" height="12.86" transform="translate(172.935 241.602)"/><path class="d" d="M392.329,91.432H114.669a8.872,8.872,0,0,0-8.569,11.174l20.3,75.588a8.872,8.872,0,0,0,8.569,6.571h28.336v5.205h181.72v-5.205h27a8.872,8.872,0,0,0,8.569-6.571l20.3-75.588A8.872,8.872,0,0,0,392.329,91.432Z"/><path class="h" d="M360.928,178.1H146.07l-21.486-77.333H382.413Z"/><path class="c" d="M379.685,292.285l-10.7,41.284,10.122,2.967Z"/><path class="i" d="M384.487,248.663a8.559,8.559,0,0,1-1.226-6.282c.552-4.071,5.462-5,5.462-5s1.066-.812,5.01.679,34.321,5.609,53.737,8.241,25.7.934,25.44,7.6-17.312,66.539-17.566,68.418S384.487,248.663,384.487,248.663Z"/><rect class="c" width="82.437" height="98.269" transform="translate(384.487 248.663) rotate(7.72)"/><line class="f" x2="4.755" y2="0.645" transform="translate(450.988 279.165)"/><line class="f" x2="25.992" y2="3.523" transform="translate(421.237 275.132)"/><line class="f" x2="27.738" y2="3.76" transform="translate(389.742 270.862)"/><line class="f" x2="11.018" y2="1.494" transform="translate(443.551 286.971)"/><line class="f" x2="43.709" y2="5.925" transform="translate(388.568 279.518)"/><line class="f" x2="42.648" y2="5.781" transform="translate(410.748 291.34)"/><line class="f" x2="18.969" y2="2.571" transform="translate(387.395 288.174)"/><line class="f" x2="27.303" y2="3.701" transform="translate(424.92 302.076)"/><line class="f" x2="20.042" y2="2.717" transform="translate(401.746 298.934)"/><line class="f" x2="12.08" y2="1.638" transform="translate(386.221 296.83)"/><line class="f" x2="9.766" y2="1.324" transform="translate(441.284 313.109)"/><line class="f" x2="49.659" y2="6.732" transform="translate(385.048 305.486)"/><line class="f" x2="27.616" y2="3.744" transform="translate(422.26 319.345)"/><line class="f" x2="33.688" y2="4.567" transform="translate(383.875 314.142)"/><line class="f" x2="17.908" y2="2.428" transform="translate(430.795 329.317)"/><line class="f" x2="31.942" y2="4.33" transform="translate(394.468 324.392)"/><line class="f" x2="8.009" y2="1.086" transform="translate(382.701 322.797)"/><path class="j" d="M466.177,259.737s1.4-13.58,6.4-8.118"/><path class="c" d="M438.477,364.354l-.081,8.624-5.033-7.1-20.189-67.909,5.115-1.521Z"/><rect class="k" width="2.91" height="70.847" transform="translate(414.336 297.62) rotate(-16.556)"/><path class="j" d="M438.477,364.37l-5.105,1.518,5.024,7.09Z"/><path class="d" d="M435.883,369.433l2.512,3.545.041-4.3Z"/><path class="c" d="M413.47,289.6h0a2.668,2.668,0,0,0-1.8,3.318l1.5,5.046,5.114-1.521-1.5-5.046A2.668,2.668,0,0,0,413.47,289.6Z"/><path class="d" d="M413.47,289.6h0a2.668,2.668,0,0,0-1.8,3.318l.717,2.414,5.115-1.52-.718-2.415A2.668,2.668,0,0,0,413.47,289.6Z"/><path class="l" d="M161.651,249.488c-.638.9-1.276,1.846-1.9,2.828"/><path class="l" d="M172.11,237.453a72.39,72.39,0,0,0-7.708,8.37"/><path class="l" d="M160.762,242.755a108.134,108.134,0,0,0-7.415,12.042"/><path class="l" d="M231.294,264.747c-.638.9-1.276,1.846-1.9,2.828"/><path class="l" d="M241.753,252.711a72.354,72.354,0,0,0-7.708,8.371"/><path class="l" d="M230.4,258.014a108.134,108.134,0,0,0-7.415,12.042"/><path class="l" d="M343.306,250.284a72.318,72.318,0,0,0-8.489-7.577"/><path class="l" d="M337.827,239.02a108.071,108.071,0,0,0-12.156-7.227"/><path class="j" d="M228.246,301.994c-.513,3.76-1.3,8.969-2.08,12.105"/><path class="j" d="M228.832,297.432s-.083.709-.229,1.856"/><path class="j" d="M231.5,308.1a84.59,84.59,0,0,1-4,10.666"/><path class="j" d="M281.5,313.432s.667,8.667,5.333,13.333"/><path class="j" d="M280.832,322.1s2,6,6,8.666"/><path class="m" d="M144.961,368.439s4.439-3.571,4.439-34.256,5.114-53.11,11.409-62.946S173,257.468,175.758,257.468s.787,3.541-3.147,8.655-7.475,7.868-9.049,14.163-1.573,14.162.394,13.376,5.114-16.523,7.868-22.425,9.442-13.375,13.376-16.916,12.589-14.163,16.523-11.409,1.574,6.688-.787,8.262-11.8,11.015-16.13,16.916-7.081,20.851-4.72,21.244,9.441-21.637,13.375-26.358,19.671-17.7,23.211-18.1,3.934,5.114.787,7.868-13.769,14.556-17.31,21.638-5.114,20.063-1.967,16.916,8.262-16.129,12.589-20.457,17.31-18.1,20.457-16.523,2.361,5.508-.393,8.262-13.376,17.7-16.13,25.571-5.9,29.9-4.327,26.752,6.688-19.277,9.442-25.965,8.261-9.835,9.048-6.688-.787,4.721-2.754,11.8-1.967,25.965-7.868,36.587-29.374,33.214-32.521,41.082a107.255,107.255,0,0,1-8.111,15.6"/><path class="m" d="M363.55,371.1s-4.563-6.232-4.563-36.917-5.115-53.11-11.409-62.946-12.2-13.769-14.95-13.769-.786,3.541,3.148,8.655,7.474,7.868,9.048,14.163,1.574,14.162-.393,13.376-5.115-16.523-7.869-22.425-9.441-13.375-13.375-16.916-12.589-14.163-16.523-11.409-1.574,6.688.786,8.262,11.8,11.015,16.13,16.916,7.081,20.851,4.721,21.244-9.442-21.637-13.376-26.358-19.67-17.7-23.211-18.1-3.934,5.114-.787,7.868,13.769,14.556,17.31,21.638,5.114,20.063,1.967,16.916-8.261-16.129-12.589-20.457-17.31-18.1-20.457-16.523-2.36,5.508.393,8.262,13.376,17.7,16.13,25.571,5.9,29.9,4.328,26.752-6.688-19.277-9.442-25.965-8.262-9.835-9.049-6.688.787,4.721,2.754,11.8,1.967,25.965,7.868,36.587,28.719,31.229,31.866,39.1,8.891,20.244,8.891,20.244"/><path class="c" d="M143.5,376.034s5.9-19.277,5.9-49.963,5.114-53.11,11.409-62.945S173,249.357,175.758,249.357s.787,3.541-3.147,8.655-7.475,7.868-9.049,14.162-1.573,14.163.394,13.376,5.114-16.523,7.868-22.424,9.442-13.376,13.376-16.916,12.589-14.163,16.523-11.409,1.574,6.688-.787,8.261-11.8,11.016-16.13,16.917-7.081,20.85-4.72,21.244,9.441-21.638,13.375-26.358,19.671-17.7,23.211-18.1,3.934,5.114.787,7.868-13.769,14.556-17.31,21.637-5.114,20.064-1.967,16.917,8.262-16.13,12.589-20.457,17.31-18.1,20.457-16.523,2.361,5.507-.393,8.261-13.376,17.7-16.13,25.572-5.9,29.9-4.327,26.751,6.688-19.277,9.442-25.965,8.261-9.835,9.048-6.688-.787,4.721-2.754,11.8-1.967,25.965-7.868,36.587-28.719,39.34-31.866,47.208-10.229,25.178-10.229,25.178"/><path class="c" d="M364.888,376.034s-5.9-19.277-5.9-49.963-5.115-53.11-11.409-62.945-12.2-13.769-14.95-13.769-.786,3.541,3.148,8.655,7.474,7.868,9.048,14.162,1.574,14.163-.393,13.376-5.115-16.523-7.869-22.424-9.441-13.376-13.375-16.916S310.6,232.047,306.664,234.8s-1.574,6.688.786,8.261,11.8,11.016,16.13,16.917,7.081,20.85,4.721,21.244-9.442-21.638-13.376-26.358-19.67-17.7-23.211-18.1-3.934,5.114-.787,7.868,13.769,14.556,17.31,21.637,5.114,20.064,1.967,16.917-8.261-16.13-12.589-20.457-17.31-18.1-20.457-16.523-2.36,5.507.393,8.261,13.376,17.7,16.13,25.572,5.9,29.9,4.328,26.751-6.688-19.277-9.442-25.965-8.262-9.835-9.049-6.688.787,4.721,2.754,11.8,1.967,25.965,7.868,36.587,28.719,39.34,31.866,47.208,10.229,25.178,10.229,25.178"/><path class="c" d="M118.6,436h59.95c.786-3,1.759-6.355,2.975-10,4.714-14.142,20.034-31.819,20.034-31.819a103.327,103.327,0,0,0-37.711-21.213C140.864,365.895,124,368,124,368a92.546,92.546,0,0,1,1,39C122.045,421.564,119.986,430.774,118.6,436Z"/><path class="c" d="M329.4,436h62.344c-1.992-5.182-6.318-16.427-10.646-27.68C375.2,393,377.56,372.376,375.2,372.376s-28.873-1.767-41.836,2.357-27.7,15.91-27.7,15.91A130.156,130.156,0,0,1,322.76,415.98,87.745,87.745,0,0,1,329.4,436Z"/></g><circle class="a" cx="8" cy="8" r="8" transform="translate(586 260)"/><circle class="a" cx="22" cy="22" r="22" transform="translate(172 317)"/><rect class="n" width="304" height="12" transform="translate(253 500)"/></g></svg>