<svg xmlns="http://www.w3.org/2000/svg" width="60" height="60" viewBox="0 0 60 60"><defs><style>.a,.b{fill:#247d8f;}.a{opacity:0.2;}</style></defs><g transform="translate(-653 -758)"><circle class="a" cx="30" cy="30" r="30" transform="translate(653 758)"/><g transform="translate(668 773)"><path class="b" d="M12.172,4.249a.922.922,0,0,1-.922-.922V.922a.922.922,0,1,1,1.844,0V3.327A.922.922,0,0,1,12.172,4.249Z" transform="translate(2.578)"/><path class="b" d="M18.743,6.84a.922.922,0,0,1-.651-1.575l1.7-1.7a.922.922,0,1,1,1.3,1.3l-1.7,1.7A.925.925,0,0,1,18.743,6.84Z" transform="translate(4.084 0.755)"/><path class="b" d="M23.87,13.094H21.465a.922.922,0,1,1,0-1.844H23.87a.922.922,0,1,1,0,1.844Z" transform="translate(4.708 2.578)"/><path class="b" d="M20.444,21.366a.915.915,0,0,1-.651-.27l-1.7-1.7a.922.922,0,1,1,1.3-1.3l1.7,1.7a.922.922,0,0,1-.653,1.575Z" transform="translate(4.084 4.084)"/><path class="b" d="M4.217,21.366a.922.922,0,0,1-.651-1.575l1.7-1.7a.922.922,0,1,1,1.3,1.3l-1.7,1.7A.919.919,0,0,1,4.217,21.366Z" transform="translate(0.755 4.084)"/><path class="b" d="M3.327,13.094H.922a.922.922,0,1,1,0-1.844H3.327a.922.922,0,1,1,0,1.844Z" transform="translate(0 2.578)"/><path class="b" d="M5.918,6.84a.915.915,0,0,1-.651-.27l-1.7-1.7a.922.922,0,0,1,1.3-1.3l1.7,1.7A.922.922,0,0,1,5.918,6.84Z" transform="translate(0.755 0.755)"/><path class="b" d="M16.375,21v1.536a2.161,2.161,0,0,1-2.151,2.151H11.151A2.241,2.241,0,0,1,9,22.18V21Z" transform="translate(2.063 4.813)"/><path class="b" d="M19.025,6.917A8.6,8.6,0,1,0,8.43,20.475a3.711,3.711,0,0,1,1.4,2.348v.012a.209.209,0,0,1,.086-.012h7.375a.111.111,0,0,1,.061.012v-.012a4.1,4.1,0,0,1,1.573-2.458,8.609,8.609,0,0,0,.1-13.447Zm-.811,7.3a.929.929,0,0,1-.922-.922,3.378,3.378,0,0,0-3.38-3.38.922.922,0,0,1,0-1.844A5.235,5.235,0,0,1,19.136,13.3.929.929,0,0,1,18.214,14.218Z" transform="translate(1.146 1.146)"/><path class="b" d="M8.93,19.5h.086a.209.209,0,0,0-.086.012Z" transform="translate(2.046 4.469)"/><path class="b" d="M15.061,19.5v.012A.111.111,0,0,0,15,19.5Z" transform="translate(3.438 4.469)"/></g></g></svg>