<svg xmlns="http://www.w3.org/2000/svg" xmlns:xlink="http://www.w3.org/1999/xlink" width="95.154" height="40.602" viewBox="0 0 95.154 40.602"><defs><style>.a{fill:url(#a);}.b{fill:url(#b);}.c{fill:#00242e;}.d{fill:#99a7ab;}</style><linearGradient id="a" x1="0.101" y1="0.28" x2="1.095" y2="0.829" gradientUnits="objectBoundingBox"><stop offset="0.131" stop-color="#d9b83f"/><stop offset="0.612" stop-color="#b18a00"/></linearGradient><linearGradient id="b" x1="0.193" y1="0.08" x2="1.51" y2="2.18" xlink:href="#a"/></defs><g transform="translate(-1131.3 -15)"><g transform="translate(887.192 -162.919)"><g transform="translate(302.006 177.919)"><path class="a" d="M495.66,177.919H477.829a10.285,10.285,0,0,0-10.286,10.286v6.687L487.069,186Z" transform="translate(-467.543 -177.919)"/><path class="b" d="M509.043,181.617c-.891-1.727-2.929-2.706-4.767-3.26a10.322,10.322,0,0,0-2.967-.438h-.949L491.77,186,473.888,202.84c.129.2.268.4.41.586q4.166-1.948,8.329-3.9c4.992-2.326,9.965-4.691,14.966-7,2.821-1.3,5.793-2.41,8.481-3.973,1.914-1.115,3.655-3.166,3.4-5.5A4.053,4.053,0,0,0,509.043,181.617Z" transform="translate(-472.244 -177.919)"/></g><g transform="translate(244.108 177.99)"><path class="c" d="M351.394,198.777a2.589,2.589,0,0,0-.1-.262,2.908,2.908,0,0,0-.664-.894s-.011-.008-.015-.011c-.846-.77-2.389-1.408-5.026-1.408-4.454,0-7.332,2.689-7.332,6.851,0,4.2,2.732,6.512,7.693,6.512a13.306,13.306,0,0,0,2.882-.248v.026c0,2.831-.507,5.742-2.663,5.742-1.988,0-2.575,1.817.168,1.817s5.279-1.981,5.279-7.434v-9A5.381,5.381,0,0,0,351.394,198.777Zm-2.565,6.772a1.824,1.824,0,0,1-1.488,1.8,7.436,7.436,0,0,1-1.336.1c-3.257,0-4.841-1.434-4.841-4.392,0-2.98,1.744-4.76,4.666-4.76a4.3,4.3,0,0,1,2.255.583,1.3,1.3,0,0,1,.595.793,6.424,6.424,0,0,1,.148,1.553Z" transform="translate(-313.859 -191.535)"/><path class="c" d="M401.45,181.656a1.753,1.753,0,1,1,0-3.463c1.263,0,2.069.631,2.069,1.775C403.519,181.068,402.631,181.656,401.45,181.656Z" transform="translate(-359.175 -178.193)"/><path class="c" d="M263.6,199.3h-3.167v1.1h1.1c2.023,0,2.2,1.644,2.2,3.08v2.676c0,2.816-.5,5.708-2.629,5.74-2.02-.05-2.563-2.71-2.6-5.4,0-.106,0-.208,0-.314v-.025c-.084-4.4-3.028-6.821-8.317-6.821-3.641,0-6.067.624-6.067,3.677a2.056,2.056,0,0,0,2.131,2.335h.182v-.182c0-2.944.532-3.922,3.691-3.922,3.692,0,5.578,1.693,5.6,5.038v.135c-.029,3.407-2.046,5.435-5.406,5.435a5.068,5.068,0,0,1-4.648-2.9l-.091-.153-.153.084c-.821.449-1.171.908-1.171,1.539,0,1.145,1.324,3.309,6.333,3.309a8.035,8.035,0,0,0,6.209-2.462,4.638,4.638,0,0,0,4.2,2.448c.044,0,.08,0,.123-.005s.078.005.122.005c2.749,0,5.28-1.981,5.28-7.433v-3.558C266.511,201.664,266.428,199.3,263.6,199.3Z" transform="translate(-244.108 -193.831)"/><path class="c" d="M405.794,199.313h-3.167v1.1h1.1c2.023,0,2.2,1.644,2.2,3.08v2.677c0,2.811-.5,5.7-2.618,5.739-2.116-.043-2.618-2.928-2.618-5.739v-3.445c0-1.062-.083-3.424-2.913-3.424h-3.167v1.1h1.1c2.023,0,2.2,1.644,2.2,3.08V211.6c0,2.832-.508,5.743-2.663,5.743-1.986,0-2.576,1.815.167,1.815,2.517,0,4.844-1.669,5.221-6.132a4.794,4.794,0,0,0,2.555.7c.044,0,.08,0,.122-.005s.078.005.122.005c2.749,0,5.28-1.982,5.28-7.432v-3.558C408.708,201.676,408.625,199.313,405.794,199.313Z" transform="translate(-354.824 -193.831)"/><path class="c" d="M425.155,181.656a1.753,1.753,0,1,1,0-3.463c1.263,0,2.069.631,2.069,1.775C427.224,181.068,426.336,181.656,425.155,181.656Z" transform="translate(-376.737 -178.193)"/><path class="c" d="M444.327,181.656a1.753,1.753,0,1,1,0-3.463c1.263,0,2.068.631,2.068,1.775C446.4,181.068,445.508,181.656,444.327,181.656Z" transform="translate(-390.941 -178.193)"/><path class="c" d="M291.619,266.057a1.753,1.753,0,1,1,0-3.463c1.264,0,2.069.631,2.069,1.775C293.688,265.469,292.8,266.057,291.619,266.057Z" transform="translate(-277.804 -240.724)"/><path class="c" d="M310.791,266.057a1.753,1.753,0,1,1,0-3.463c1.264,0,2.068.631,2.068,1.775C312.86,265.469,311.972,266.057,310.791,266.057Z" transform="translate(-292.008 -240.724)"/></g></g><g transform="translate(1134.335 83.863)"><path class="d" d="M6.447-31.189a1.025,1.025,0,0,1,.191.337,1.194,1.194,0,0,1,.081.417,1.136,1.136,0,0,1-.176.593,1.541,1.541,0,0,1-.568.517,3.549,3.549,0,0,1-1.02.362,7.446,7.446,0,0,1-1.543.136,6.31,6.31,0,0,1-1.674-.186,2.828,2.828,0,0,1-1.045-.508,1.7,1.7,0,0,1-.538-.758,2.913,2.913,0,0,1-.15-.95v-1.548H.829v1.393a1.469,1.469,0,0,0,.612,1.307,3.651,3.651,0,0,0,2,.415,8.352,8.352,0,0,0,.973-.054,4.755,4.755,0,0,0,.806-.161,1.625,1.625,0,0,0,.547-.265.468.468,0,0,0,.2-.371.514.514,0,0,0-.237-.41,2.394,2.394,0,0,0-.582-.315q-.347-.136-.739-.245t-.694-.2V-32.5a6.986,6.986,0,0,0,2.422.472H7.15a.356.356,0,0,1,.4.4.466.466,0,0,1-.1.341.434.434,0,0,1-.307.09ZM2.105-27.28a.51.51,0,0,1,.157-.377.508.508,0,0,1,.377-.156.512.512,0,0,1,.377.156.515.515,0,0,1,.155.377.516.516,0,0,1-.155.377.515.515,0,0,1-.377.156.511.511,0,0,1-.377-.156A.512.512,0,0,1,2.105-27.28Zm1.307,0a.513.513,0,0,1,.156-.377.511.511,0,0,1,.377-.156.511.511,0,0,1,.377.156.513.513,0,0,1,.156.377.514.514,0,0,1-.156.377.514.514,0,0,1-.377.156.514.514,0,0,1-.377-.156A.514.514,0,0,1,3.412-27.28Z" transform="translate(0 -1.514)"/><path class="d" d="M8.965-31.807a.355.355,0,0,1-.4-.4.471.471,0,0,1,.1-.341.439.439,0,0,1,.307-.09h.674a3.419,3.419,0,0,0,.412-.02.646.646,0,0,0,.286-.1.437.437,0,0,0,.171-.221,1.144,1.144,0,0,0,.055-.4v-2.3h.825v1.93a2.711,2.711,0,0,0,.035.457.829.829,0,0,0,.135.347.682.682,0,0,0,.271.221,1.018,1.018,0,0,0,.432.08.355.355,0,0,1,.4.4.466.466,0,0,1-.1.341.435.435,0,0,1-.307.09,1.013,1.013,0,0,1-.633-.186.885.885,0,0,1-.321-.467.9.9,0,0,1-.568.533,3.233,3.233,0,0,1-.95.12Zm1.3,1.5a.513.513,0,0,1,.155-.377.513.513,0,0,1,.377-.155.513.513,0,0,1,.377.155.514.514,0,0,1,.156.377.513.513,0,0,1-.156.377.514.514,0,0,1-.377.156.514.514,0,0,1-.377-.156A.512.512,0,0,1,10.262-30.31Z" transform="translate(-1.824 -0.896)"/><path class="d" d="M13.154-31.807a.355.355,0,0,1-.4-.4.467.467,0,0,1,.1-.341.436.436,0,0,1,.306-.09h1.568v-3.036h.824v3.87Zm.4,1.518a.513.513,0,0,1,.156-.377.511.511,0,0,1,.377-.156.511.511,0,0,1,.377.156.513.513,0,0,1,.156.377.515.515,0,0,1-.156.377.514.514,0,0,1-.377.156.514.514,0,0,1-.377-.156A.515.515,0,0,1,13.556-30.29Zm1.307,0a.51.51,0,0,1,.156-.377.51.51,0,0,1,.377-.156.512.512,0,0,1,.377.156.513.513,0,0,1,.156.377.515.515,0,0,1-.156.377.515.515,0,0,1-.377.156.513.513,0,0,1-.377-.156A.512.512,0,0,1,14.863-30.29Z" transform="translate(-2.718 -0.896)"/><path class="d" d="M20.342-31.671a.958.958,0,0,1-.553-.15,1.025,1.025,0,0,1-.331-.352,7.01,7.01,0,0,1-.09,1.221,1.849,1.849,0,0,1-.327.8,1.32,1.32,0,0,1-.659.441,3.66,3.66,0,0,1-1.1.136v-.835a2.242,2.242,0,0,0,.769-.1.783.783,0,0,0,.412-.342,1.4,1.4,0,0,0,.161-.6c.017-.244.025-.541.025-.888v-2.694h.814v1.427a1.515,1.515,0,0,0,.186.81.748.748,0,0,0,.688.3.355.355,0,0,1,.4.4.466.466,0,0,1-.1.341A.431.431,0,0,1,20.342-31.671Z" transform="translate(-3.684 -1.032)"/><path class="d" d="M21.061-31.843a.355.355,0,0,1-.4-.4.471.471,0,0,1,.1-.341.439.439,0,0,1,.307-.09h4.03a3.019,3.019,0,0,0-.171-1.085,1.922,1.922,0,0,0-.463-.718,1.763,1.763,0,0,0-.678-.4,2.657,2.657,0,0,0-.829-.125,3.692,3.692,0,0,0-.618.055,5.36,5.36,0,0,0-.537.115v-.8c.133-.04.312-.085.532-.135a3.315,3.315,0,0,1,.724-.075,3.089,3.089,0,0,1,1.3.25,2.49,2.49,0,0,1,.9.687,2.862,2.862,0,0,1,.528,1.012,4.55,4.55,0,0,1,.181,1.217h.623a.355.355,0,0,1,.4.4.466.466,0,0,1-.1.341.434.434,0,0,1-.306.09Zm2.1,1.508a.512.512,0,0,1,.157-.377.511.511,0,0,1,.377-.156.515.515,0,0,1,.377.156.516.516,0,0,1,.155.377.515.515,0,0,1-.155.377.515.515,0,0,1-.377.156.511.511,0,0,1-.377-.156A.51.51,0,0,1,23.161-30.335Z" transform="translate(-4.403 -0.86)"/><path class="d" d="M28.086-32.409a.355.355,0,0,1-.4-.4.471.471,0,0,1,.1-.341.439.439,0,0,1,.307-.09h1.568v-3.036h.824v3.87Zm.674-5.557a.516.516,0,0,1,.156-.378.511.511,0,0,1,.377-.155.513.513,0,0,1,.377.155.519.519,0,0,1,.156.378.515.515,0,0,1-.156.376.511.511,0,0,1-.377.156.508.508,0,0,1-.377-.156A.512.512,0,0,1,28.76-37.966Zm1.306,0a.516.516,0,0,1,.156-.378A.513.513,0,0,1,30.6-38.5a.513.513,0,0,1,.377.155.516.516,0,0,1,.156.378.512.512,0,0,1-.156.376.511.511,0,0,1-.377.156.511.511,0,0,1-.377-.156A.512.512,0,0,1,30.066-37.966Z" transform="translate(-5.901 -0.294)"/><path class="d" d="M35.68-34.636H36.5v1.317a1.566,1.566,0,0,0,.627,1.351,3.242,3.242,0,0,0,1.91.458,6.119,6.119,0,0,0,.933-.07,2.4,2.4,0,0,0,.8-.26,1.5,1.5,0,0,0,.552-.509,1.49,1.49,0,0,0,.206-.82v-.161a2.1,2.1,0,0,1-.473.2,2.462,2.462,0,0,1-.723.09,2.8,2.8,0,0,1-.729-.09,1.5,1.5,0,0,1-.582-.3,1.428,1.428,0,0,1-.392-.548,2.153,2.153,0,0,1-.146-.845,2.452,2.452,0,0,1,.131-.789A2.126,2.126,0,0,1,39-36.294a1.862,1.862,0,0,1,.623-.482,1.931,1.931,0,0,1,.854-.18,1.891,1.891,0,0,1,.9.2,1.553,1.553,0,0,1,.588.542,2.4,2.4,0,0,1,.316.825,5.358,5.358,0,0,1,.1,1.05v.843a3.167,3.167,0,0,1-.231,1.267,2.261,2.261,0,0,1-.663.88,2.825,2.825,0,0,1-1.05.512,5.359,5.359,0,0,1-1.392.166,5.708,5.708,0,0,1-1.578-.188,2.821,2.821,0,0,1-1.035-.518,1.938,1.938,0,0,1-.568-.777,2.659,2.659,0,0,1-.175-.98Zm3.527-3.969a.516.516,0,0,1,.156-.378.516.516,0,0,1,.377-.155.516.516,0,0,1,.377.155.516.516,0,0,1,.156.378.511.511,0,0,1-.156.376.511.511,0,0,1-.377.157.512.512,0,0,1-.377-.157A.511.511,0,0,1,39.207-38.605Zm.08,3.7a.983.983,0,0,0,.312.819,1.273,1.273,0,0,0,.814.247,2.066,2.066,0,0,0,.674-.1,1.493,1.493,0,0,0,.442-.222v-.371a3.565,3.565,0,0,0-.056-.644,1.537,1.537,0,0,0-.186-.518.983.983,0,0,0-.341-.341.982.982,0,0,0-.513-.127,1.07,1.07,0,0,0-.527.121,1.1,1.1,0,0,0-.352.3,1.266,1.266,0,0,0-.2.4A1.532,1.532,0,0,0,39.288-34.907Zm1.227-3.7a.518.518,0,0,1,.155-.378.516.516,0,0,1,.377-.155.514.514,0,0,1,.377.155.516.516,0,0,1,.157.378.512.512,0,0,1-.157.376.509.509,0,0,1-.377.157.512.512,0,0,1-.377-.157A.513.513,0,0,1,40.514-38.605Z" transform="translate(-7.605 -0.158)"/><path class="d" d="M49.363-33.537a2.192,2.192,0,0,0,.322-.02.475.475,0,0,0,.236-.1.492.492,0,0,0,.15-.221,1.142,1.142,0,0,0,.056-.4v-5.608h.824v5.236a1.4,1.4,0,0,0,.206.81.745.745,0,0,0,.659.3.355.355,0,0,1,.4.4.466.466,0,0,1-.1.341.434.434,0,0,1-.306.09.991.991,0,0,1-.629-.186.9.9,0,0,1-.316-.467.9.9,0,0,1-.578.533,3.6,3.6,0,0,1-1.02.12H45.464v-.834h2.272v-3.829h.824v3.829Z" transform="translate(-9.691 0)"/><path class="d" d="M53.428-32.7a.355.355,0,0,1-.4-.4.467.467,0,0,1,.1-.341.439.439,0,0,1,.307-.09h1.135v-6.342h.824v4.925a4.081,4.081,0,0,1,1.2-1.292,2.832,2.832,0,0,1,1.6-.457,1.936,1.936,0,0,1,1.521.611,2.45,2.45,0,0,1,.549,1.695V-32.7Zm6.01-.834v-.674a2.924,2.924,0,0,0-.071-.648,1.354,1.354,0,0,0-.242-.527,1.188,1.188,0,0,0-.447-.352A1.577,1.577,0,0,0,58-35.869a1.859,1.859,0,0,0-.9.221,3.069,3.069,0,0,0-.743.558,3.924,3.924,0,0,0-.578.748,5.24,5.24,0,0,0-.4.8Z" transform="translate(-11.303 0)"/><path class="d" d="M64.955-30.2H63.116v-.463h.452a.947.947,0,0,1-.14-.5,1.018,1.018,0,0,1,.071-.392.768.768,0,0,1,.19-.281.861.861,0,0,1,.276-.171.856.856,0,0,1,.317-.061,2.026,2.026,0,0,1,.3.02.39.39,0,0,1,.186.071v.472a1.04,1.04,0,0,0-.433-.09.42.42,0,0,0-.351.141.491.491,0,0,0-.111.312A.482.482,0,0,0,64-30.8a.511.511,0,0,0,.392.141h.563Zm-.412-9.679V-32.7h-.824v-7.176Z" transform="translate(-13.455 0)"/></g></g></svg>