<svg xmlns="http://www.w3.org/2000/svg" xmlns:xlink="http://www.w3.org/1999/xlink" width="116.25" height="31.162" viewBox="0 0 116.25 31.162"><defs><style>.a{fill:url(#a);}.b{fill:url(#b);}.c{fill:#00242e;}</style><linearGradient id="a" x1="0.101" y1="0.28" x2="1.095" y2="0.829" gradientUnits="objectBoundingBox"><stop offset="0.131" stop-color="#d9b83f"/><stop offset="0.612" stop-color="#b18a00"/></linearGradient><linearGradient id="b" x1="0.193" y1="0.08" x2="1.51" y2="2.18" xlink:href="#a"/></defs><g transform="translate(-244.108 -177.919)"><g transform="translate(314.842 177.919)"><path class="a" d="M501.894,177.919H480.11a12.565,12.565,0,0,0-12.567,12.567v8.17L491.4,187.8Z" transform="translate(-467.543 -177.919)"/><path class="b" d="M516.837,182.437c-1.088-2.11-3.578-3.306-5.823-3.983a12.611,12.611,0,0,0-3.624-.536H506.23l-10.5,9.878-21.846,20.568c.157.245.327.483.5.715q5.089-2.38,10.176-4.76c6.1-2.841,12.174-5.731,18.284-8.549,3.446-1.589,7.077-2.944,10.361-4.854,2.339-1.362,4.465-3.868,4.154-6.719A4.952,4.952,0,0,0,516.837,182.437Z" transform="translate(-471.879 -177.919)"/></g><g transform="translate(244.108 178.006)"><path class="c" d="M354.308,199.348a3.155,3.155,0,0,0-.125-.321,3.553,3.553,0,0,0-.811-1.092s-.013-.009-.018-.014c-1.034-.94-2.919-1.72-6.141-1.72-5.442,0-8.958,3.285-8.958,8.37,0,5.129,3.338,7.955,9.4,7.955a16.257,16.257,0,0,0,3.521-.3v.031c0,3.458-.619,7.015-3.253,7.015-2.429,0-3.146,2.22.2,2.22s6.449-2.42,6.449-9.083V201.412A6.575,6.575,0,0,0,354.308,199.348Zm-3.133,8.273a2.228,2.228,0,0,1-1.817,2.195,9.083,9.083,0,0,1-1.632.121c-3.98,0-5.914-1.752-5.914-5.366,0-3.641,2.13-5.816,5.7-5.816a5.253,5.253,0,0,1,2.755.712,1.582,1.582,0,0,1,.727.969,7.849,7.849,0,0,1,.181,1.9Z" transform="translate(-308.45 -190.501)"/><path class="c" d="M401.9,182.423a2.142,2.142,0,1,1,0-4.23c1.544,0,2.527.771,2.527,2.168C404.428,181.705,403.343,182.423,401.9,182.423Z" transform="translate(-350.252 -178.193)"/><path class="c" d="M267.918,199.3H264.05v1.344h1.343c2.471,0,2.685,2.008,2.685,3.763v3.27c0,3.441-.615,6.974-3.212,7.013-2.468-.061-3.132-3.31-3.18-6.6,0-.129,0-.254,0-.383v-.031c-.1-5.375-3.7-8.334-10.161-8.334-4.448,0-7.412.762-7.412,4.492,0,1.787.972,2.852,2.6,2.852h.223v-.223c0-3.6.651-4.791,4.51-4.791,4.51,0,6.814,2.068,6.841,6.155v.165c-.035,4.163-2.5,6.64-6.6,6.64A6.191,6.191,0,0,1,246,211.091l-.111-.187-.187.1c-1,.548-1.431,1.11-1.431,1.881,0,1.4,1.618,4.042,7.737,4.042a9.816,9.816,0,0,0,7.585-3.008,5.666,5.666,0,0,0,5.134,2.99c.054,0,.1-.005.15-.007s.1.006.149.006c3.359,0,6.45-2.421,6.45-9.08v-4.347C271.478,202.188,271.377,199.3,267.918,199.3Z" transform="translate(-244.108 -192.619)"/><path class="c" d="M408.51,199.316h-3.869v1.344h1.343c2.471,0,2.685,2.008,2.685,3.763v3.27c0,3.435-.614,6.96-3.2,7.012-2.585-.052-3.2-3.577-3.2-7.012v-4.209c0-1.3-.1-4.184-3.559-4.184h-3.869v1.344h1.343c2.471,0,2.685,2.008,2.685,3.763v9.921c0,3.46-.62,7.017-3.254,7.017-2.426,0-3.147,2.217.2,2.217,3.075,0,5.918-2.039,6.378-7.492a5.856,5.856,0,0,0,3.122.856c.054,0,.1-.005.149-.006s.1.006.149.006c3.359,0,6.45-2.421,6.45-9.08V203.5C412.069,202.2,411.968,199.316,408.51,199.316Z" transform="translate(-346.239 -192.619)"/><path class="c" d="M425.605,182.423a2.142,2.142,0,1,1,0-4.23c1.544,0,2.527.771,2.527,2.168C428.133,181.705,427.048,182.423,425.605,182.423Z" transform="translate(-366.453 -178.193)"/><path class="c" d="M444.777,182.423a2.142,2.142,0,1,1,0-4.23c1.544,0,2.527.771,2.527,2.168C447.3,181.705,446.22,182.423,444.777,182.423Z" transform="translate(-379.555 -178.193)"/><path class="c" d="M292.069,266.824a2.142,2.142,0,1,1,0-4.23c1.544,0,2.527.771,2.527,2.168C294.6,266.106,293.512,266.824,292.069,266.824Z" transform="translate(-275.191 -235.875)"/><path class="c" d="M311.241,266.824a2.142,2.142,0,1,1,0-4.23c1.544,0,2.527.771,2.527,2.168C313.768,266.106,312.684,266.824,311.241,266.824Z" transform="translate(-288.293 -235.875)"/></g></g></svg>