<svg xmlns="http://www.w3.org/2000/svg" xmlns:xlink="http://www.w3.org/1999/xlink" width="201.448" height="54" viewBox="0 0 201.448 54"><defs><style>.a{fill:url(#a);}.b{fill:url(#b);}.c{fill:#00242e;}</style><linearGradient id="a" x1="0.101" y1="0.28" x2="1.095" y2="0.829" gradientUnits="objectBoundingBox"><stop offset="0.131" stop-color="#d9b83f"/><stop offset="0.612" stop-color="#b18a00"/></linearGradient><linearGradient id="b" x1="0.193" y1="0.08" x2="1.51" y2="2.18" xlink:href="#a"/></defs><g transform="translate(-244.108 -177.919)"><g transform="translate(366.682 177.919)"><path class="a" d="M527.069,177.919H489.32A21.774,21.774,0,0,0,467.543,199.7v14.157l41.338-18.817Z" transform="translate(-467.543 -177.919)"/><path class="b" d="M548.314,185.748c-1.886-3.656-6.2-5.729-10.091-6.9a21.854,21.854,0,0,0-6.28-.928h-2.009l-18.188,17.118-37.857,35.642c.273.425.567.837.869,1.24q8.819-4.124,17.634-8.248c10.567-4.924,21.1-9.931,31.684-14.814,5.972-2.754,12.264-5.1,17.955-8.411,4.053-2.36,7.737-6.7,7.2-11.643A8.584,8.584,0,0,0,548.314,185.748Z" transform="translate(-470.407 -177.919)"/></g><g transform="translate(244.108 178.069)"><path class="c" d="M366.072,201.654a5.477,5.477,0,0,0-.216-.556,6.155,6.155,0,0,0-1.405-1.892c-.008,0-.023-.016-.031-.024-1.791-1.629-5.058-2.981-10.641-2.981-9.43,0-15.523,5.692-15.523,14.5,0,8.889,5.784,13.786,16.287,13.786a28.171,28.171,0,0,0,6.1-.525v.054c0,5.993-1.073,12.156-5.637,12.156-4.209,0-5.452,3.846.355,3.846s11.175-4.193,11.175-15.739V205.23A11.394,11.394,0,0,0,366.072,201.654Zm-5.429,14.337a3.861,3.861,0,0,1-3.15,3.8,15.737,15.737,0,0,1-2.828.21c-6.9,0-10.248-3.035-10.248-9.3,0-6.309,3.691-10.078,9.878-10.078a9.1,9.1,0,0,1,4.774,1.234,2.742,2.742,0,0,1,1.26,1.679,13.6,13.6,0,0,1,.314,3.288Z" transform="translate(-286.607 -186.322)"/><path class="c" d="M403.718,185.524c-2.152,0-4.3-1.335-4.3-3.573,0-2.421,2.052-3.757,4.3-3.757,2.675,0,4.379,1.336,4.379,3.757C408.1,184.279,406.218,185.524,403.718,185.524Z" transform="translate(-314.217 -178.193)"/><path class="c" d="M285.369,199.3h-6.7v2.329h2.327c4.282,0,4.653,3.48,4.653,6.521v5.666c0,5.963-1.066,12.085-5.567,12.153-4.277-.106-5.427-5.737-5.511-11.435-.008-.224-.008-.44-.008-.664v-.054c-.178-9.314-6.41-14.442-17.608-14.442-7.708,0-12.843,1.32-12.843,7.784,0,3.1,1.684,4.943,4.51,4.943H249v-.386c0-6.233,1.127-8.3,7.815-8.3,7.816,0,11.808,3.583,11.854,10.665v.286c-.061,7.213-4.332,11.507-11.445,11.507-6.194,0-8.635-4.108-9.84-6.14l-.193-.324-.324.178c-1.737.95-2.479,1.923-2.479,3.259,0,2.425,2.8,7,13.407,7,5.661,0,10.21-1.9,13.144-5.213a9.819,9.819,0,0,0,8.9,5.182c.094,0,.17-.009.259-.012s.165.011.258.011c5.821,0,11.178-4.194,11.178-15.735v-7.532C291.537,204.3,291.361,199.3,285.369,199.3Z" transform="translate(-244.108 -187.721)"/><path class="c" d="M419.475,199.327h-6.7v2.329H415.1c4.282,0,4.652,3.48,4.652,6.521v5.667c0,5.952-1.063,12.061-5.543,12.151-4.48-.09-5.544-6.2-5.544-12.151v-7.293c0-2.248-.175-7.25-6.168-7.25h-6.7v2.329h2.327c4.282,0,4.652,3.48,4.652,6.521v17.192c0,6-1.075,12.159-5.638,12.159-4.2,0-5.454,3.842.354,3.842,5.328,0,10.255-3.534,11.052-12.982a10.149,10.149,0,0,0,5.41,1.483c.093,0,.169-.009.258-.011s.165.011.258.011c5.821,0,11.178-4.2,11.178-15.735v-7.533C425.643,204.329,425.468,199.327,419.475,199.327Z" transform="translate(-311.567 -187.721)"/><path class="c" d="M427.423,185.524c-2.153,0-4.3-1.335-4.3-3.573,0-2.421,2.052-3.757,4.3-3.757,2.675,0,4.379,1.336,4.379,3.757C431.8,184.279,429.923,185.524,427.423,185.524Z" transform="translate(-324.918 -178.193)"/><path class="c" d="M446.6,185.524c-2.153,0-4.3-1.335-4.3-3.573,0-2.421,2.052-3.757,4.3-3.757,2.675,0,4.379,1.336,4.379,3.757C450.974,184.279,449.095,185.524,446.6,185.524Z" transform="translate(-333.572 -178.193)"/><path class="c" d="M293.887,269.925c-2.152,0-4.3-1.335-4.3-3.574,0-2.421,2.052-3.757,4.3-3.757,2.675,0,4.379,1.336,4.379,3.757C298.267,268.68,296.387,269.925,293.887,269.925Z" transform="translate(-264.638 -216.292)"/><path class="c" d="M313.059,269.925c-2.153,0-4.3-1.335-4.3-3.574,0-2.421,2.052-3.757,4.3-3.757,2.675,0,4.379,1.336,4.379,3.757C317.438,268.68,315.559,269.925,313.059,269.925Z" transform="translate(-273.293 -216.292)"/></g></g></svg>