<svg xmlns="http://www.w3.org/2000/svg" xmlns:xlink="http://www.w3.org/1999/xlink" width="45.516" height="31.162" viewBox="0 0 45.516 31.162"><defs><style>.a{fill:url(#a);}.b{fill:url(#b);}</style><linearGradient id="a" x1="0.101" y1="0.28" x2="1.095" y2="0.829" gradientUnits="objectBoundingBox"><stop offset="0.131" stop-color="#d9b83f"/><stop offset="0.612" stop-color="#b18a00"/></linearGradient><linearGradient id="b" x1="0.193" y1="0.08" x2="1.51" y2="2.18" xlink:href="#a"/></defs><g transform="translate(-314.842 -177.919)"><g transform="translate(314.842 177.919)"><path class="a" d="M501.894,177.919H480.11a12.565,12.565,0,0,0-12.567,12.567v8.17L491.4,187.8Z" transform="translate(-467.543 -177.919)"/><path class="b" d="M516.837,182.437c-1.088-2.11-3.578-3.306-5.823-3.983a12.611,12.611,0,0,0-3.624-.536H506.23l-10.5,9.878-21.846,20.568c.157.245.327.483.5.715q5.089-2.38,10.176-4.76c6.1-2.841,12.174-5.731,18.284-8.549,3.446-1.589,7.077-2.944,10.361-4.854,2.339-1.362,4.465-3.868,4.154-6.719A4.952,4.952,0,0,0,516.837,182.437Z" transform="translate(-471.879 -177.919)"/></g></g></svg>