<svg xmlns="http://www.w3.org/2000/svg" xmlns:xlink="http://www.w3.org/1999/xlink" width="388.586" height="408.687" viewBox="0 0 388.586 408.687"><defs><style>.a,.c,.j,.l{fill:#fff;}.a,.e,.f,.i,.m{stroke:#263238;}.a,.e,.f,.h,.i,.m{stroke-linecap:round;stroke-miterlimit:10;}.b,.f{fill:#247d8f;}.c{opacity:0.7;}.d,.g{opacity:0.3;}.e{fill:#263238;}.h,.i{fill:none;}.h{stroke:#000;}.k{clip-path:url(#a);}.l{opacity:0.5;}.m{fill:#f3f8f9;}.n{clip-path:url(#b);}.o{clip-path:url(#c);}.p{fill:url(#d);}.q{fill:url(#e);}.r{fill:#00242e;}</style><clipPath id="a"><path class="a" d="M361.158,449.906l-49.519-85.6s-5.542-38.89-17.349-54.539S265.924,282.7,275.53,274.7s34.005-23.294,39.018-22.318,38.665,17.955,48.172,20.747,12.839,6.8,11.422,15.022-2.02,65.784.8,73.734,34.06,64.587,34.06,64.587"/></clipPath><clipPath id="b"><path class="a" d="M333.939,306.44s-11.337,2.662-16.4,1.459-15.422-15.757-22.527-20.548-11.44-5.927-18.88-7.051-12.577,2.474-10.98,9.276,10.234,15.062,16.539,20.519,12.329,14.809,16.071,25.653,6.084,20.82,14.4,31.786,18.7,15.465,22.2,16.08"/></clipPath><clipPath id="c"><path class="a" d="M374.01,285.549l1.362-4.386c1.362-4.387.325-10.842-3.407-14.511s-16.971-10.131-20.877-13.52-32.927-24.087-38.142-22.863-11.367,8.649-16.623,12.754S272.2,262.562,272.2,262.562s-13.245,5.741-12.606,8.462,3.357,6.149,11.666,5.873,22.155-8.55,24.262-9.763,15.168-9.781,15.168-9.781a45.863,45.863,0,0,0,11.518,8.3c6.173,2.857,6.96,3.15,6.96,3.15s1.61,5.842,6.143,8.845"/></clipPath><linearGradient id="d" x1="0.101" y1="0.28" x2="1.095" y2="0.829" gradientUnits="objectBoundingBox"><stop offset="0.131" stop-color="#d9b83f"/><stop offset="0.612" stop-color="#b18a00"/></linearGradient><linearGradient id="e" x1="0.193" y1="0.08" x2="1.51" y2="2.18" xlink:href="#d"/></defs><g transform="translate(-821.723 -1120.182)"><path class="b" d="M339.266,218.367s3.039-10.9,13.346-33.982c14.1-31.576-6.17-67.072-46.354-85.582-47.1-21.7-107.694-13.614-151.372-.354-36.128,10.969-51.049,39.612-57.552,68.166-3.294,14.462-3.92,29.263-6,43.925-2.77,19.548-8.808,39.4-14.1,58.55-6.388,23.131-12.721,49.246-3.7,74.215,27.776,76.909,180.421,80.226,240.495,44.636,33.956-20.117,46.471-49.692,35-84.21C340.548,278.194,332.3,243.3,339.266,218.367Z" transform="translate(911.203 1015.169) rotate(22)"/><path class="c" d="M339.266,218.367s3.039-10.9,13.346-33.982c14.1-31.576-6.17-67.072-46.354-85.582-47.1-21.7-107.694-13.614-151.372-.354-36.128,10.969-51.049,39.612-57.552,68.166-3.294,14.462-3.92,29.263-6,43.925-2.77,19.548-8.808,39.4-14.1,58.55-6.388,23.131-12.721,49.246-3.7,74.215,27.776,76.909,180.421,80.226,240.495,44.636,33.956-20.117,46.471-49.692,35-84.21C340.548,278.194,332.3,243.3,339.266,218.367Z" transform="translate(911.203 1015.169) rotate(22)"/><g transform="translate(741.949 1071.85)"><path class="d" d="M334.924,156.186a.953.953,0,1,0-.293-1.884l-3.793.591-.113-.725,3.794-.59a.953.953,0,0,0-.293-1.883l-3.794.59-.812-5.221-11.384-10.289L169.168,410.753l11.421,7.713L367.333,389.4,365.247,376l3.794-.59a.953.953,0,1,0-.293-1.883l-3.794.59-.112-.724,3.793-.591a.953.953,0,0,0-.293-1.883l-3.793.591-1.1-7.048,3.793-.59a.953.953,0,1,0-.293-1.883l-3.793.59-.113-.724,3.793-.591a.953.953,0,1,0-.293-1.883l-3.793.59-1.1-7.047,3.794-.59a.953.953,0,0,0-.293-1.884l-3.794.591-.113-.725,3.794-.59a.953.953,0,0,0-.293-1.883l-3.794.59-1.1-7.047,3.793-.59a.953.953,0,0,0-.293-1.884l-3.793.591-.113-.725,3.793-.59a.953.953,0,1,0-.293-1.883l-3.793.59-1.1-7.047,3.793-.591a.953.953,0,1,0-.293-1.883l-3.793.59-.113-.724,3.794-.59a.953.953,0,0,0-.293-1.884l-3.794.591-1.1-7.048,3.794-.59a.953.953,0,1,0-.293-1.883l-3.794.59-.112-.724,3.793-.591a.953.953,0,0,0-.293-1.883l-3.793.591-1.1-7.048,3.793-.59a.953.953,0,1,0-.293-1.883l-3.793.59-.113-.724,3.793-.591a.953.953,0,1,0-.293-1.883l-3.793.59-1.1-7.047,3.794-.59a.953.953,0,1,0-.293-1.883l-3.794.59-.113-.724,3.794-.591a.953.953,0,0,0-.293-1.883l-3.794.59-1.1-7.047,3.793-.59a.953.953,0,0,0-.293-1.884l-3.793.591-.113-.725,3.793-.59a.953.953,0,1,0-.293-1.883l-3.793.59-1.1-7.047,3.793-.591a.953.953,0,1,0-.293-1.883l-3.793.59-.113-.724,3.794-.59a.953.953,0,0,0-.293-1.883l-3.794.59-1.1-7.047,3.794-.591a.953.953,0,1,0-.293-1.883l-3.794.59-.112-.724,3.793-.59a.953.953,0,0,0-.293-1.884l-3.793.591-1.1-7.047,3.793-.591a.953.953,0,1,0-.293-1.883l-3.793.59-.113-.724,3.793-.591A.953.953,0,1,0,348.59,244l-3.793.591-1.1-7.048,3.794-.59a.953.953,0,1,0-.293-1.883l-3.794.59-.113-.724,3.794-.591a.953.953,0,0,0-.293-1.883l-3.794.59-1.1-7.047,3.793-.59a.953.953,0,1,0-.293-1.883l-3.793.59-.113-.725,3.793-.59a.953.953,0,1,0-.293-1.883l-3.793.59-1.1-7.047,3.793-.59a.953.953,0,1,0-.293-1.884l-3.793.591-.113-.725,3.794-.59a.953.953,0,0,0-.293-1.883l-3.794.59-1.1-7.047,3.794-.591a.953.953,0,1,0-.293-1.883l-3.794.59-.112-.724,3.793-.59a.953.953,0,0,0-.293-1.884l-3.793.591-1.1-7.047,3.793-.591a.953.953,0,0,0-.293-1.883l-3.793.59-.113-.724,3.793-.59a.953.953,0,1,0-.293-1.884l-3.793.591-1.1-7.048,3.794-.59a.953.953,0,1,0-.293-1.883l-3.794.59-.113-.724,3.794-.591a.953.953,0,1,0-.293-1.883l-3.794.59-1.1-7.047,3.793-.59a.953.953,0,1,0-.293-1.883l-3.793.59-.113-.724,3.793-.591a.953.953,0,1,0-.293-1.883l-3.793.59-1.1-7.047Z"/><path class="e" d="M175.2,413.394l173.153-26.947L309.7,138.1,136.552,165.049a8.1,8.1,0,0,0-6.755,9.245l36.158,232.345A8.1,8.1,0,0,0,175.2,413.394Z"/><path class="a" d="M0,0H9.983a2.65,2.65,0,0,1,2.65,2.65v22.6a2.65,2.65,0,0,1-2.65,2.65H0a0,0,0,0,1,0,0V0A0,0,0,0,1,0,0Z" transform="translate(178.438 404.696) rotate(171.155)"/><path class="f" d="M0,0H9.983a2.65,2.65,0,0,1,2.65,2.65v22.6a2.65,2.65,0,0,1-2.65,2.65H0a0,0,0,0,1,0,0V0A0,0,0,0,1,0,0Z" transform="matrix(-0.988, 0.154, -0.154, -0.988, 173.928, 375.711)"/><path class="a" d="M0,0H9.983a2.65,2.65,0,0,1,2.65,2.65v22.6a2.65,2.65,0,0,1-2.65,2.65H0a0,0,0,0,1,0,0V0A0,0,0,0,1,0,0Z" transform="translate(169.417 346.727) rotate(171.155)"/><path class="f" d="M0,0H9.983a2.65,2.65,0,0,1,2.65,2.65v22.6a2.65,2.65,0,0,1-2.65,2.65H0a0,0,0,0,1,0,0V0A0,0,0,0,1,0,0Z" transform="translate(164.907 317.743) rotate(171.154)"/><path class="a" d="M146.241,262.721l5.912-.92-15.07-96.834,181.153-28.192,38.648,248.344L175.731,413.311,156.444,289.373l-5.913.92a2.65,2.65,0,0,1-3.026-2.211l-3.475-22.335A2.649,2.649,0,0,1,146.241,262.721Z"/><path class="e" d="M308.166,151.994a3.54,3.54,0,1,0,2.953-4.041A3.541,3.541,0,0,0,308.166,151.994Z"/><path class="a" d="M312.031,150.9l10.575-1.645a.954.954,0,0,0,.8-1.089h0a.952.952,0,0,0-1.088-.795l-10.575,1.646a.953.953,0,0,0-.8,1.088h0A.953.953,0,0,0,312.031,150.9Z"/><path class="a" d="M312.437,153.5l10.575-1.646a.953.953,0,0,0,.8-1.088h0a.953.953,0,0,0-1.088-.795l-10.575,1.646a.953.953,0,0,0-.8,1.088h0A.953.953,0,0,0,312.437,153.5Z"/><path class="e" d="M309.962,163.533a3.54,3.54,0,1,0,2.953-4.042A3.539,3.539,0,0,0,309.962,163.533Z"/><path class="a" d="M313.827,162.434l10.575-1.646a.953.953,0,0,0,.795-1.088h0a.954.954,0,0,0-1.088-.8l-10.575,1.646a.953.953,0,0,0-.795,1.088h0A.954.954,0,0,0,313.827,162.434Z"/><path class="a" d="M314.233,165.041l10.575-1.646a.953.953,0,0,0,.795-1.088h0a.953.953,0,0,0-1.088-.8l-10.576,1.646a.953.953,0,0,0-.795,1.088h0A.953.953,0,0,0,314.233,165.041Z"/><path class="e" d="M311.757,175.071a3.54,3.54,0,1,0,2.954-4.042A3.54,3.54,0,0,0,311.757,175.071Z"/><path class="a" d="M315.622,173.972l10.576-1.646a.953.953,0,0,0,.8-1.088h0a.953.953,0,0,0-1.088-.8l-10.576,1.645a.954.954,0,0,0-.8,1.089h0A.953.953,0,0,0,315.622,173.972Z"/><path class="a" d="M316.028,176.579l10.575-1.645a.954.954,0,0,0,.8-1.089h0a.952.952,0,0,0-1.088-.795L315.735,174.7a.953.953,0,0,0-.795,1.088h0A.953.953,0,0,0,316.028,176.579Z"/><path class="e" d="M313.553,186.609a3.54,3.54,0,1,0,2.953-4.042A3.539,3.539,0,0,0,313.553,186.609Z"/><path class="a" d="M317.418,185.51l10.575-1.646a.953.953,0,0,0,.795-1.088h0a.953.953,0,0,0-1.088-.795l-10.575,1.646a.953.953,0,0,0-.8,1.088h0A.953.953,0,0,0,317.418,185.51Z"/><path class="a" d="M317.824,188.118l10.575-1.646a.953.953,0,0,0,.8-1.089h0a.954.954,0,0,0-1.088-.795l-10.575,1.646a.953.953,0,0,0-.8,1.088h0A.954.954,0,0,0,317.824,188.118Z"/><path class="e" d="M315.349,198.147A3.54,3.54,0,1,0,318.3,194.1,3.538,3.538,0,0,0,315.349,198.147Z"/><path class="a" d="M319.214,197.048l10.575-1.646a.953.953,0,0,0,.8-1.088h0a.953.953,0,0,0-1.088-.795l-10.576,1.646a.953.953,0,0,0-.8,1.088h0A.953.953,0,0,0,319.214,197.048Z"/><path class="a" d="M319.619,199.656,330.2,198.01a.953.953,0,0,0,.795-1.088h0a.953.953,0,0,0-1.088-.795l-10.576,1.645a.953.953,0,0,0-.795,1.088h0A.953.953,0,0,0,319.619,199.656Z"/><path class="e" d="M317.144,209.685a3.54,3.54,0,1,0,2.953-4.042A3.541,3.541,0,0,0,317.144,209.685Z"/><path class="a" d="M321.009,208.586l10.575-1.646a.953.953,0,0,0,.795-1.088h0a.952.952,0,0,0-1.088-.795L320.716,206.7a.953.953,0,0,0-.8,1.088h0A.953.953,0,0,0,321.009,208.586Z"/><path class="a" d="M321.415,211.194l10.575-1.646a.953.953,0,0,0,.8-1.088h0a.953.953,0,0,0-1.088-.8l-10.575,1.645a.954.954,0,0,0-.8,1.089h0A.953.953,0,0,0,321.415,211.194Z"/><path class="e" d="M318.94,221.224a3.54,3.54,0,1,0,2.953-4.042A3.54,3.54,0,0,0,318.94,221.224Z"/><path class="a" d="M322.8,220.124l10.575-1.645a.953.953,0,0,0,.795-1.088h0a.953.953,0,0,0-1.088-.8l-10.575,1.646a.953.953,0,0,0-.795,1.088h0A.952.952,0,0,0,322.8,220.124Z"/><path class="a" d="M323.211,222.732l10.575-1.646a.953.953,0,0,0,.795-1.088h0a.953.953,0,0,0-1.088-.795l-10.576,1.646a.953.953,0,0,0-.795,1.088h0A.953.953,0,0,0,323.211,222.732Z"/><path class="e" d="M320.735,232.762a3.54,3.54,0,1,0,2.954-4.042A3.54,3.54,0,0,0,320.735,232.762Z"/><path class="a" d="M324.6,231.663l10.576-1.646a.953.953,0,0,0,.8-1.088h0a.953.953,0,0,0-1.088-.795l-10.576,1.645a.953.953,0,0,0-.8,1.089h0A.954.954,0,0,0,324.6,231.663Z"/><path class="a" d="M325.006,234.27l10.575-1.646a.953.953,0,0,0,.8-1.088h0a.952.952,0,0,0-1.088-.795l-10.575,1.646a.953.953,0,0,0-.8,1.088h0A.953.953,0,0,0,325.006,234.27Z"/><path class="e" d="M322.531,244.3a3.54,3.54,0,1,0,2.953-4.042A3.54,3.54,0,0,0,322.531,244.3Z"/><path class="a" d="M326.4,243.2l10.575-1.646a.953.953,0,0,0,.795-1.088h0a.953.953,0,0,0-1.088-.795L326.1,241.318a.952.952,0,0,0-.795,1.088h0A.953.953,0,0,0,326.4,243.2Z"/><path class="a" d="M326.8,245.808l10.575-1.645a.953.953,0,0,0,.795-1.089h0a.953.953,0,0,0-1.088-.795l-10.575,1.646a.953.953,0,0,0-.8,1.088h0A.952.952,0,0,0,326.8,245.808Z"/><path class="e" d="M324.327,255.838a3.54,3.54,0,1,0,2.953-4.042A3.538,3.538,0,0,0,324.327,255.838Z"/><path class="a" d="M328.192,254.739l10.575-1.646a.953.953,0,0,0,.8-1.088h0a.953.953,0,0,0-1.088-.795L327.9,252.856a.953.953,0,0,0-.8,1.088h0A.953.953,0,0,0,328.192,254.739Z"/><path class="a" d="M328.6,257.346l10.576-1.645a.953.953,0,0,0,.795-1.088h0a.954.954,0,0,0-1.088-.8L328.3,255.463a.953.953,0,0,0-.795,1.088h0A.952.952,0,0,0,328.6,257.346Z"/><path class="e" d="M326.122,267.376a3.54,3.54,0,1,0,2.953-4.042A3.539,3.539,0,0,0,326.122,267.376Z"/><path class="a" d="M329.987,266.277l10.575-1.646a.953.953,0,0,0,.795-1.088h0a.952.952,0,0,0-1.088-.8l-10.575,1.646a.953.953,0,0,0-.8,1.088h0A.953.953,0,0,0,329.987,266.277Z"/><path class="a" d="M330.393,268.885l10.575-1.646a.953.953,0,0,0,.8-1.088h0a.953.953,0,0,0-1.088-.8L330.1,267a.952.952,0,0,0-.8,1.088h0A.953.953,0,0,0,330.393,268.885Z"/><path class="e" d="M327.918,278.914a3.54,3.54,0,1,0,2.953-4.042A3.54,3.54,0,0,0,327.918,278.914Z"/><path class="a" d="M331.783,277.815l10.575-1.645a.954.954,0,0,0,.8-1.089h0a.953.953,0,0,0-1.088-.795l-10.575,1.646a.953.953,0,0,0-.795,1.088h0A.952.952,0,0,0,331.783,277.815Z"/><path class="a" d="M332.189,280.423l10.575-1.646a.953.953,0,0,0,.795-1.088h0a.953.953,0,0,0-1.088-.795l-10.576,1.646a.953.953,0,0,0-.795,1.088h0A.953.953,0,0,0,332.189,280.423Z"/><path class="e" d="M329.713,290.453a3.54,3.54,0,1,0,2.954-4.042A3.54,3.54,0,0,0,329.713,290.453Z"/><path class="a" d="M333.578,289.353l10.576-1.645a.953.953,0,0,0,.8-1.088h0a.953.953,0,0,0-1.088-.795l-10.576,1.645a.953.953,0,0,0-.8,1.088h0A.953.953,0,0,0,333.578,289.353Z"/><path class="a" d="M333.984,291.961l10.575-1.646a.953.953,0,0,0,.8-1.088h0a.952.952,0,0,0-1.088-.795l-10.575,1.646a.953.953,0,0,0-.8,1.088h0A.953.953,0,0,0,333.984,291.961Z"/><path class="e" d="M331.509,301.991a3.54,3.54,0,1,0,2.953-4.042A3.54,3.54,0,0,0,331.509,301.991Z"/><path class="a" d="M335.374,300.892l10.575-1.646a.953.953,0,0,0,.795-1.088h0a.953.953,0,0,0-1.088-.795l-10.575,1.645a.953.953,0,0,0-.795,1.089h0A.953.953,0,0,0,335.374,300.892Z"/><path class="a" d="M335.78,303.5l10.575-1.646a.952.952,0,0,0,.795-1.088h0a.953.953,0,0,0-1.088-.8l-10.575,1.646a.953.953,0,0,0-.8,1.088h0A.952.952,0,0,0,335.78,303.5Z"/><path class="e" d="M333.3,313.529a3.54,3.54,0,1,0,2.953-4.042A3.538,3.538,0,0,0,333.3,313.529Z"/><path class="a" d="M337.17,312.43l10.575-1.646a.953.953,0,0,0,.8-1.088h0a.953.953,0,0,0-1.088-.8l-10.576,1.646a.953.953,0,0,0-.8,1.088h0A.953.953,0,0,0,337.17,312.43Z"/><path class="a" d="M337.575,315.037l10.576-1.645a.953.953,0,0,0,.8-1.088h0a.953.953,0,0,0-1.088-.8l-10.576,1.646a.953.953,0,0,0-.8,1.088h0A.953.953,0,0,0,337.575,315.037Z"/><path class="e" d="M335.1,325.067a3.54,3.54,0,1,0,2.953-4.042A3.539,3.539,0,0,0,335.1,325.067Z"/><path class="a" d="M338.965,323.968l10.575-1.646a.953.953,0,0,0,.795-1.088h0a.952.952,0,0,0-1.088-.8l-10.575,1.646a.953.953,0,0,0-.795,1.088h0A.953.953,0,0,0,338.965,323.968Z"/><path class="a" d="M339.371,326.576l10.575-1.646a.953.953,0,0,0,.795-1.088h0a.953.953,0,0,0-1.088-.8l-10.575,1.645a.954.954,0,0,0-.8,1.089h0A.953.953,0,0,0,339.371,326.576Z"/><path class="e" d="M336.9,336.605a3.54,3.54,0,1,0,2.953-4.042A3.54,3.54,0,0,0,336.9,336.605Z"/><path class="a" d="M340.761,335.506l10.575-1.645a.954.954,0,0,0,.8-1.089h0a.953.953,0,0,0-1.088-.8l-10.575,1.646a.953.953,0,0,0-.795,1.088h0A.952.952,0,0,0,340.761,335.506Z"/><path class="a" d="M341.167,338.114l10.575-1.646a.953.953,0,0,0,.795-1.088h0a.953.953,0,0,0-1.088-.8l-10.576,1.645a.954.954,0,0,0-.795,1.089h0A.953.953,0,0,0,341.167,338.114Z"/><path class="e" d="M338.691,348.144a3.54,3.54,0,1,0,2.954-4.042A3.541,3.541,0,0,0,338.691,348.144Z"/><path class="a" d="M342.556,347.044l10.576-1.645a.953.953,0,0,0,.8-1.089h0a.953.953,0,0,0-1.089-.795l-10.575,1.646a.953.953,0,0,0-.8,1.088h0A.953.953,0,0,0,342.556,347.044Z"/><path class="a" d="M342.962,349.652l10.575-1.646a.953.953,0,0,0,.8-1.088h0a.952.952,0,0,0-1.088-.8l-10.575,1.646a.953.953,0,0,0-.8,1.088h0A.953.953,0,0,0,342.962,349.652Z"/><path class="e" d="M340.487,359.682a3.54,3.54,0,1,0,2.953-4.042A3.54,3.54,0,0,0,340.487,359.682Z"/><path class="a" d="M344.352,358.583l10.575-1.646a.953.953,0,0,0,.795-1.088h0a.953.953,0,0,0-1.088-.8L344.059,356.7a.953.953,0,0,0-.795,1.089h0A.953.953,0,0,0,344.352,358.583Z"/><path class="a" d="M344.758,361.19l10.575-1.646a.953.953,0,0,0,.795-1.088h0a.953.953,0,0,0-1.088-.795l-10.575,1.646a.953.953,0,0,0-.795,1.088h0A.952.952,0,0,0,344.758,361.19Z"/><path class="e" d="M342.282,371.22a3.54,3.54,0,1,0,2.954-4.042A3.54,3.54,0,0,0,342.282,371.22Z"/><path class="a" d="M346.148,370.121l10.575-1.646a.953.953,0,0,0,.8-1.088h0a.953.953,0,0,0-1.088-.795l-10.576,1.645a.954.954,0,0,0-.8,1.089h0A.953.953,0,0,0,346.148,370.121Z"/><path class="a" d="M346.553,372.728l10.576-1.645a.954.954,0,0,0,.8-1.089h0a.953.953,0,0,0-1.089-.795l-10.575,1.646a.953.953,0,0,0-.8,1.088h0A.953.953,0,0,0,346.553,372.728Z"/><g class="g"><line class="h" y1="22.912" x2="147.228" transform="translate(157.19 183.118)"/><line class="h" y1="22.912" x2="147.228" transform="translate(159.035 194.975)"/><line class="h" y1="22.912" x2="147.228" transform="translate(160.88 206.833)"/><line class="h" y1="22.912" x2="147.228" transform="translate(162.726 218.69)"/><line class="h" y1="22.912" x2="147.228" transform="translate(164.571 230.547)"/><line class="h" y1="22.912" x2="147.228" transform="translate(166.416 242.404)"/><line class="h" y1="22.912" x2="147.228" transform="translate(168.261 254.262)"/><line class="h" y1="22.912" x2="147.228" transform="translate(170.107 266.119)"/><line class="h" y1="22.912" x2="147.228" transform="translate(171.952 277.976)"/><line class="h" y1="22.912" x2="147.228" transform="translate(173.797 289.834)"/><line class="h" y1="22.912" x2="147.228" transform="translate(175.642 301.691)"/><line class="h" y1="22.912" x2="147.228" transform="translate(177.488 313.548)"/><line class="h" y1="22.912" x2="147.228" transform="translate(179.333 325.405)"/><line class="h" y1="22.912" x2="147.228" transform="translate(183.715 353.566)"/><line class="h" y1="22.912" x2="147.228" transform="translate(185.176 362.953)"/><line class="h" y1="22.912" x2="147.228" transform="translate(186.637 372.34)"/></g><path class="i" d="M178.194,217.436s-12.56,13.593-5.3,11.451,17.193-16.338,15.074-10.442-2,9.926,1.417,5.852,5.313-4.875,4.633-2.745,2.13.681,2.13.681,6.949-4.118,6.269-1.988-1.175,2.207.8,1.9l6.423-1s-.417.571,5.511-.352,8.245-2.295,11.21-2.756" transform="translate(69 -23)"/><path class="i" d="M172.486,236.035s9.683-6.061,10.9-4.733-.45,3.612,3.919,2.426,8.355-4.842,8.662-2.866,3.119.527,3.119.527l2.47-.384s4.523-.2,5.928-.923,2.877-7.532,1.79,1.745-4.863,1.263,4.139-2.668,10.683.362,10.683.362a13.989,13.989,0,0,0,2.887-.956c1.9-.8,3.568-3.085,5.358-1.339s4.973-3.81,4.973-3.81a29.642,29.642,0,0,1,3.689.944,8.649,8.649,0,0,0,3.612.45,27.715,27.715,0,0,0,4.524-.2c1.976-.308,3.645-2.592,5.281-1.834s4.094-6.2,2.854,2.086-9.254,12.066-5.994,7.005a41.439,41.439,0,0,1,10.891-11.309c3.645-2.592,4.71-2.252,5.511-.352s1.79,1.745,3.689.944.264-1.559,1.9-.8a4.758,4.758,0,0,0,3.613.45c1.482-.231-5.468,3.887,1.482-.231s9.429-20.7,5.8-11.528-2.261,11.484,2.6,10.221" transform="translate(9 -6)"/><path class="i" d="M173.541,252.569S185.419,241.106,184.7,239.7s-4.524.2-7.29,5.183-.823,7.718,6.62,3.524-3.381,1.032,4.26,1.361,9.914-4.579,10.145-3.1-2.317,1.372,3.689.944,3.074-3.009,9.233-2.449,8.893-1.384,8.893-1.384l3.952-.615s-7.981.736,2.394-.879,14.952-14.471,9.946-7.62-2.645,9.014,2.482,6.192l5.127-2.822s6.488-7.082,3.426,2.5-6.686,2.559,4.71-2.251,11.1-.209,14.9-1.812,3.184-5.556,5.7-2.4,2.361,2.163,6.313,1.548,2.888-.956,6.346-1.494l7.411-1.153"/><path class="i" d="M175.541,286.429s11.549-4.77,13.386-11.739-7.26,2.08-6.28,11.936-4.411-3.632,11.7-7.048,5.118,2.424,6.927,4.052,8.452-4.681,8.3-2.4,2.82,2.885,10.921-1.542-5.1-3.563-5.728-.333,3.294,1.934,13.311-.422.215.883,6.418.265,19.865-8.314,17.17-4.88-.091,5.438,2.927,3.328,9.419-7.725,9.956-5.517a4.021,4.021,0,0,1-1.237,3.743" transform="matrix(0.999, -0.035, 0.035, 0.999, 53.331, -4.949)"/></g><g transform="translate(741.949 1071.85)"><path class="d" d="M387.208,363.326c-1.921-5.409-2.256-33.79-1.827-53.967l11.227,2.428a8.149,8.149,0,0,0,6.932-1.663,8.37,8.37,0,0,0,1.005-.97,8.191,8.191,0,0,0,1.957-4.212q.061-.423.081-.84a8.243,8.243,0,0,0-7.022-8.522L386,293.565c.125-1.767.262-3.131.407-3.972a18.576,18.576,0,0,0,.29-3.962c.2-.649.5-1.605.94-3.026,1.362-4.386.325-10.841-3.407-14.511s-16.971-10.13-20.877-13.519-32.928-24.087-38.143-22.863-11.366,8.649-16.622,12.754S284.465,264,284.465,264c.06-.656-9.718,3.3-12.1,7.129a1.65,1.65,0,0,0-.509,1.333,6.937,6.937,0,0,0,4.341,4.785l-8.477-1.26a2.559,2.559,0,0,0-2.507,1.124c-3.007-.454-9.119-1.122-13.537.089,0,0,7.214,3.525,12.606,4.7a2.55,2.55,0,0,0,1.876,1.678l11.248,2.432a13.068,13.068,0,0,0-.464,2,3.589,3.589,0,0,0,.254,1.819,11.385,11.385,0,0,0,.211,1.182c1.6,6.8,10.235,15.061,16.54,20.519s12.328,14.809,16.07,25.652,6.085,20.821,14.4,31.787a50.385,50.385,0,0,0,4.61,5.269l77.571,48.97S390.032,371.276,387.208,363.326ZM286.042,278.054a6.929,6.929,0,0,0-.372.6l-2.142-.318A17.562,17.562,0,0,0,286.042,278.054Z"/><path class="j" d="M361.158,449.906l-49.519-85.6s-5.542-38.89-17.349-54.539S265.924,282.7,275.53,274.7s34.005-23.294,39.018-22.318,38.665,17.955,48.172,20.747,12.839,6.8,11.422,15.022-2.02,65.784.8,73.734,34.06,64.587,34.06,64.587"/><g class="k"><path class="b" d="M374.945,361.884c-2.823-7.95-2.221-65.507-.8-73.734.868-5.042-.057-8.493-3.083-11.055a36.646,36.646,0,0,1-2.191,13.392c-2.671,7.568-4.006,12.91-4.006,12.91s-.445,27.154,1.335,40.954,10.684,38.284,19.142,51.639c6.259,9.882,15.193,18.783,19.419,22.747C396.118,402.956,377.118,368,374.945,361.884Z"/><path class="l" d="M374.945,361.884c-2.823-7.95-2.221-65.507-.8-73.734.868-5.042-.057-8.493-3.083-11.055a36.646,36.646,0,0,1-2.191,13.392c-2.671,7.568-4.006,12.91-4.006,12.91s-.445,27.154,1.335,40.954,10.684,38.284,19.142,51.639c6.259,9.882,15.193,18.783,19.419,22.747C396.118,402.956,377.118,368,374.945,361.884Z"/></g><path class="i" d="M361.158,449.906l-49.519-85.6s-5.542-38.89-17.349-54.539S265.924,282.7,275.53,274.7s34.005-23.294,39.018-22.318,38.665,17.955,48.172,20.747,12.839,6.8,11.422,15.022-2.02,65.784.8,73.734,34.06,64.587,34.06,64.587"/><path class="b" d="M262.476,276.242a44.556,44.556,0,0,0,21.812-7.122c11.129-7.123,7.568-8.458,7.568-8.458s5.787-1.781,9.348-3.116a46.594,46.594,0,0,0,8.458-4.9s14.245,9.348,20.923,12.019a72.083,72.083,0,0,0,9.833,3.364l9.308,12.217a31.939,31.939,0,0,0-12.909,11.129c-5.342,8.013-12.019,18.7-15.135,20.032s-1.781,2.671-15.581-2.671S261.585,284.255,262.476,276.242Z"/><path class="l" d="M262.476,276.242a44.556,44.556,0,0,0,21.812-7.122c11.129-7.123,7.568-8.458,7.568-8.458s5.787-1.781,9.348-3.116a46.594,46.594,0,0,0,8.458-4.9s14.245,9.348,20.923,12.019a72.083,72.083,0,0,0,9.833,3.364l9.308,12.217a31.939,31.939,0,0,0-12.909,11.129c-5.342,8.013-12.019,18.7-15.135,20.032s-1.781,2.671-15.581-2.671S261.585,284.255,262.476,276.242Z"/><path class="i" d="M287.143,280.346s10.7-1.315,18.237-15.047c0,0,8.878,3.76,18.121,1.35"/><path class="i" d="M316.153,270.425s-5.168,13.653,5.717,31.726"/><path class="i" d="M304.724,271.673s5.384,6.63,6.261,12.4"/><path class="i" d="M314.814,308.538s8.951-5.69,13.782-11.609,6.954-12.159,14.5-14.649"/><line class="i" x1="2.193" y1="2.591" transform="translate(303.187 262.708)"/><path class="e" d="M254.779,275.982s-9.294-1.885-15.363-.221c0,0,8.92,4.366,14.334,5.008Z"/><path class="m" d="M387.3,294.137,255.46,274.549a2.56,2.56,0,0,0-2.86,1.907l-.644,2.557a2.561,2.561,0,0,0,1.942,3.128l130.447,28.2a8.242,8.242,0,0,0,9.894-6.845h0A8.241,8.241,0,0,0,387.3,294.137Z"/><path class="f" d="M387.3,294.137l-19.926-2.96a9.986,9.986,0,0,0-4.535,10.936,10.27,10.27,0,0,0,1.918,4l19.59,4.235a8.242,8.242,0,0,0,9.894-6.845h0A8.241,8.241,0,0,0,387.3,294.137Z"/><path class="j" d="M333.939,306.44s-11.337,2.662-16.4,1.459-15.422-15.757-22.527-20.548-11.44-5.927-18.88-7.051-12.577,2.474-10.98,9.276,10.234,15.062,16.539,20.519,12.329,14.809,16.071,25.653,6.084,20.82,14.4,31.786,18.7,15.465,22.2,16.08"/><g class="n"><path class="b" d="M328.314,308.048s-.288-.145-.8-.41c-3.442.506-7.475.855-9.979.261-5.067-1.2-15.422-15.757-22.527-20.548s-11.44-5.927-18.88-7.051a16.466,16.466,0,0,0-3.589-.159,48.4,48.4,0,0,1,15.984,7.308c7.915,5.717,13.632,20.229,22.427,22.868S328.314,308.048,328.314,308.048Z"/><path class="l" d="M328.314,308.048s-.288-.145-.8-.41c-3.442.506-7.475.855-9.979.261-5.067-1.2-15.422-15.757-22.527-20.548s-11.44-5.927-18.88-7.051a16.466,16.466,0,0,0-3.589-.159,48.4,48.4,0,0,1,15.984,7.308c7.915,5.717,13.632,20.229,22.427,22.868S328.314,308.048,328.314,308.048Z"/></g><path class="i" d="M333.939,306.44s-11.337,2.662-16.4,1.459-15.422-15.757-22.527-20.548-11.44-5.927-18.88-7.051-12.577,2.474-10.98,9.276,10.234,15.062,16.539,20.519,12.329,14.809,16.071,25.653,6.084,20.82,14.4,31.786,18.7,15.465,22.2,16.08"/><path class="a" d="M270.84,294.46s.536-5.867,8.58-11.344c0,0-5.372-3.524-9.053-2.9s-5.123,2.638-5.685,6.359S270.84,294.46,270.84,294.46Z"/><path class="i" d="M276.119,300.693a10.769,10.769,0,0,0,2.065,1.612"/><path class="i" d="M281.965,286.824s-8.537,4.4-7.166,11.252"/><path class="j" d="M374.01,285.549l1.362-4.386c1.362-4.387.325-10.842-3.407-14.511s-16.971-10.131-20.877-13.52-32.927-24.087-38.142-22.863-11.367,8.649-16.623,12.754S272.2,262.562,272.2,262.562s-13.245,5.741-12.606,8.462,3.357,6.149,11.666,5.873,22.155-8.55,24.262-9.763,15.168-9.781,15.168-9.781a45.863,45.863,0,0,0,11.518,8.3c6.173,2.857,6.96,3.15,6.96,3.15s1.61,5.842,6.143,8.845"/><g class="o"><path class="b" d="M366.642,266.894c4.8,3.771,5.1,11.232,3.774,17.922l3.594.733,1.362-4.386c1.362-4.387.325-10.842-3.407-14.511s-16.971-10.131-20.877-13.52c-1.019-.884-3.757-2.952-7.327-5.5l-.712.116S360.41,262,366.642,266.894Z"/><path class="l" d="M366.642,266.894c4.8,3.771,5.1,11.232,3.774,17.922l3.594.733,1.362-4.386c1.362-4.387.325-10.842-3.407-14.511s-16.971-10.131-20.877-13.52c-1.019-.884-3.757-2.952-7.327-5.5l-.712.116S360.41,262,366.642,266.894Z"/><path class="b" d="M262.476,276.242a44.556,44.556,0,0,0,21.812-7.122c11.129-7.123,7.568-8.458,7.568-8.458s5.787-1.781,9.348-3.116a46.594,46.594,0,0,0,8.458-4.9s14.245,9.348,20.923,12.019a72.083,72.083,0,0,0,9.833,3.364l9.308,12.217a31.939,31.939,0,0,0-12.909,11.129c-5.342,8.013-12.019,18.7-15.135,20.032s-1.781,2.671-15.581-2.671S261.585,284.255,262.476,276.242Z"/><path class="l" d="M262.476,276.242a44.556,44.556,0,0,0,21.812-7.122c11.129-7.123,7.568-8.458,7.568-8.458s5.787-1.781,9.348-3.116a46.594,46.594,0,0,0,8.458-4.9s14.245,9.348,20.923,12.019a72.083,72.083,0,0,0,9.833,3.364l9.308,12.217a31.939,31.939,0,0,0-12.909,11.129c-5.342,8.013-12.019,18.7-15.135,20.032s-1.781,2.671-15.581-2.671S261.585,284.255,262.476,276.242Z"/></g><path class="i" d="M374.01,285.549l1.362-4.386c1.362-4.387.325-10.842-3.407-14.511s-16.971-10.131-20.877-13.52-32.927-24.087-38.142-22.863-11.367,8.649-16.623,12.754S272.2,262.562,272.2,262.562s-13.245,5.741-12.606,8.462,3.357,6.149,11.666,5.873,22.155-8.55,24.262-9.763,15.168-9.781,15.168-9.781a45.863,45.863,0,0,0,11.518,8.3c6.173,2.857,6.96,3.15,6.96,3.15s1.61,5.842,6.143,8.845"/><path class="a" d="M259.6,271.024s1.346.641,4.187-.5,8.352-7.224,8.419-7.957S260.051,266.85,259.6,271.024Z"/><path class="i" d="M310.159,247.651a16.738,16.738,0,0,1,.472-1.767"/><path class="i" d="M310.692,257.353a19.45,19.45,0,0,1-.855-7.44"/></g><g transform="translate(726.16 1087.197) rotate(-7)"><g transform="translate(273.986 177.919)"><path class="p" d="M482.053,177.919h-9.2a5.308,5.308,0,0,0-5.308,5.308v3.451l10.076-4.587Z" transform="translate(-467.543 -177.919)"/><path class="q" d="M492.03,179.827a3.96,3.96,0,0,0-2.46-1.682,5.327,5.327,0,0,0-1.531-.226h-.49l-4.433,4.173-9.228,8.688c.066.1.138.2.212.3q2.15-1.005,4.3-2.011c2.576-1.2,5.142-2.421,7.723-3.611,1.456-.671,2.99-1.243,4.377-2.05a3.133,3.133,0,0,0,1.755-2.838A2.091,2.091,0,0,0,492.03,179.827Z" transform="translate(-473.04 -177.919)"/></g><g transform="translate(244.108 177.956)"><path class="r" d="M345.036,197.531a1.336,1.336,0,0,0-.053-.135,1.5,1.5,0,0,0-.343-.461s-.006,0-.008-.006a3.777,3.777,0,0,0-2.594-.727c-2.3,0-3.784,1.388-3.784,3.535,0,2.167,1.41,3.36,3.97,3.36a6.866,6.866,0,0,0,1.487-.128v.013c0,1.461-.262,2.963-1.374,2.963-1.026,0-1.329.938.087.938s2.724-1.022,2.724-3.837V198.4A2.777,2.777,0,0,0,345.036,197.531Zm-1.323,3.495a.941.941,0,0,1-.768.927,3.836,3.836,0,0,1-.689.051c-1.681,0-2.5-.74-2.5-2.267a2.407,2.407,0,0,1,3.571-2.156.668.668,0,0,1,.307.409,3.317,3.317,0,0,1,.077.8Z" transform="translate(-325.665 -193.794)"/><path class="r" d="M400.468,179.98a.9.9,0,1,1,0-1.787c.652,0,1.068.326,1.068.916C401.535,179.677,401.077,179.98,400.468,179.98Z" transform="translate(-378.651 -178.193)"/><path class="r" d="M254.166,199.3h-1.634v.568h.567c1.044,0,1.134.848,1.134,1.589v1.381c0,1.453-.26,2.946-1.357,2.962-1.043-.026-1.323-1.4-1.343-2.787,0-.055,0-.107,0-.162v-.013c-.043-2.27-1.563-3.52-4.292-3.52-1.879,0-3.131.322-3.131,1.9a1.061,1.061,0,0,0,1.1,1.2h.094v-.094c0-1.519.275-2.024,1.905-2.024,1.905,0,2.878.873,2.89,2.6v.07a2.583,2.583,0,0,1-2.79,2.8,2.615,2.615,0,0,1-2.4-1.5l-.047-.079-.079.043c-.424.231-.6.469-.6.794,0,.591.683,1.707,3.268,1.707a4.146,4.146,0,0,0,3.2-1.271,2.393,2.393,0,0,0,2.169,1.263c.023,0,.041,0,.063,0l.063,0c1.419,0,2.725-1.022,2.725-3.836v-1.836C255.669,200.52,255.626,199.3,254.166,199.3Z" transform="translate(-244.108 -196.478)"/><path class="r" d="M399.868,199.307h-1.634v.568h.567c1.044,0,1.134.848,1.134,1.589v1.381c0,1.451-.259,2.94-1.351,2.962-1.092-.022-1.351-1.511-1.351-2.962v-1.778c0-.548-.043-1.767-1.5-1.767h-1.634v.568h.567c1.044,0,1.134.848,1.134,1.589v4.191c0,1.461-.262,2.964-1.374,2.964-1.025,0-1.329.936.086.936,1.3,0,2.5-.861,2.694-3.165a2.474,2.474,0,0,0,1.319.361l.063,0,.063,0c1.419,0,2.725-1.023,2.725-3.836v-1.836C401.371,200.527,401.328,199.307,399.868,199.307Z" transform="translate(-373.564 -196.478)"/><path class="r" d="M424.173,179.98a.9.9,0,1,1,0-1.787c.652,0,1.068.326,1.068.916C425.24,179.677,424.782,179.98,424.173,179.98Z" transform="translate(-399.186 -178.193)"/><path class="r" d="M443.345,179.98a.9.9,0,1,1,0-1.787c.652,0,1.067.326,1.067.916C444.412,179.677,443.954,179.98,443.345,179.98Z" transform="translate(-415.795 -178.193)"/><path class="r" d="M290.637,264.381a.9.9,0,1,1,0-1.787c.652,0,1.068.326,1.068.916C291.7,264.078,291.246,264.381,290.637,264.381Z" transform="translate(-283.507 -251.308)"/><path class="r" d="M309.809,264.381a.9.9,0,1,1,0-1.787c.652,0,1.067.326,1.067.916C310.876,264.078,310.418,264.381,309.809,264.381Z" transform="translate(-300.115 -251.308)"/></g></g><circle class="b" cx="8" cy="8" r="8" transform="translate(848 1285)"/><circle class="b" cx="22" cy="22" r="22" transform="translate(1163 1346)"/></g></svg>