<svg xmlns="http://www.w3.org/2000/svg" width="50.002" height="50" viewBox="0 0 50.002 50"><defs><style>.a{fill:#d2d2d2;}</style></defs><path class="a" d="M22.417,32.833A10.417,10.417,0,1,1,32.833,22.417,10.428,10.428,0,0,1,22.417,32.833Zm0-17.708a7.292,7.292,0,1,0,7.292,7.292A7.3,7.3,0,0,0,22.417,15.125Z" transform="translate(13 13)"/><path class="a" d="M27.583,29.147a1.55,1.55,0,0,1-1.1-.458l-6.771-6.771a1.563,1.563,0,0,1,2.21-2.21l6.771,6.771a1.564,1.564,0,0,1-1.106,2.669Z" transform="translate(20.854 20.853)"/><path class="a" d="M21.937,43.75H5.729A5.734,5.734,0,0,1,0,38.021V5.729A5.734,5.734,0,0,1,5.729,0H29.688a5.734,5.734,0,0,1,5.729,5.729V20.4a1.563,1.563,0,0,1-3.125,0V5.729a2.608,2.608,0,0,0-2.6-2.6H5.729a2.608,2.608,0,0,0-2.6,2.6V38.021a2.608,2.608,0,0,0,2.6,2.6H21.938a1.563,1.563,0,0,1,0,3.125Z"/><path class="a" d="M24.354,11.125H4.563A1.563,1.563,0,0,1,4.563,8H24.354a1.563,1.563,0,0,1,0,3.125Z" transform="translate(3.25 8.667)"/><path class="a" d="M16.021,15.125H4.563a1.563,1.563,0,0,1,0-3.125H16.021a1.563,1.563,0,0,1,0,3.125Z" transform="translate(3.25 13)"/><path class="a" d="M13.937,7.125H4.563A1.563,1.563,0,0,1,4.563,4h9.375a1.563,1.563,0,0,1,0,3.125Z" transform="translate(3.25 4.333)"/></svg>