<svg xmlns="http://www.w3.org/2000/svg" xmlns:xlink="http://www.w3.org/1999/xlink" width="100" height="100" viewBox="0 0 100 100"><defs><style>.a{fill:#f2f2f2;}.b{fill:url(#a);}.c{fill:url(#b);}.d{fill:url(#c);}</style><linearGradient id="a" x1="0.5" x2="0.5" y2="1" gradientUnits="objectBoundingBox"><stop offset="0.131" stop-color="#d9b83f"/><stop offset="0.612" stop-color="#b18a00"/></linearGradient><linearGradient id="b" x1="0.101" y1="0.28" x2="1.095" y2="0.829" xlink:href="#a"/><linearGradient id="c" x1="0.193" y1="0.08" x2="1.51" y2="2.18" xlink:href="#a"/></defs><g transform="translate(-1100 -118)"><rect class="a" width="100" height="100" rx="10" transform="translate(1100 118)"/><g transform="translate(0 0.779)"><circle class="b" cx="9.877" cy="9.877" r="9.877" transform="translate(1140.146 138.22)"/><g transform="translate(1125 162.973)"><g transform="translate(0 0)"><path class="c" d="M505.238,177.919h-23.9a13.789,13.789,0,0,0-13.79,13.791v8.965l26.177-11.916Z" transform="translate(-467.543 -177.919)"/><path class="d" d="M521.018,182.877c-1.194-2.315-3.926-3.628-6.39-4.37a13.839,13.839,0,0,0-3.977-.588h-1.272l-11.518,10.84L473.888,211.33c.173.269.359.53.55.785q5.585-2.612,11.167-5.223c6.692-3.118,13.359-6.289,20.064-9.381,3.782-1.744,7.766-3.23,11.37-5.326,2.567-1.495,4.9-4.244,4.558-7.373A5.434,5.434,0,0,0,521.018,182.877Z" transform="translate(-471.684 -177.919)"/></g></g></g></g></svg>